NotoSansArmenian-CondensedLight.ufo
<glyph name="hyphen" format="2">
  <advance width="263"/>
  <unicode hex="002D"/>
  <outline>
    <contour>
      <point x="26" y="259" type="line"/>
      <point x="237" y="259" type="line"/>
      <point x="237" y="286" type="line"/>
      <point x="26" y="286" type="line"/>
    </contour>
  </outline>
</glyph>
<glyph name="dieresiscomb" format="2">
  <unicode hex="0308"/>
  <anchor x="-1" y="527" name="_top"/>
  <outline>
    <contour>
      <point x="-96" y="663" type="curve" smooth="yes"/>
      <point x="-96" y="646"/>
      <point x="-87" y="631"/>
      <point x="-71" y="631" type="curve" smooth="yes"/>
      <point x="-57" y="631"/>
      <point x="-47" y="644"/>
      <point x="-47" y="663" type="curve" smooth="yes"/>
      <point x="-47" y="682"/>
      <point x="-57" y="696"/>
      <point x="-71" y="696" type="curve" smooth="yes"/>
      <point x="-87" y="696"/>
      <point x="-96" y="680"/>
    </contour>
    <contour>
      <point x="45" y="664" type="curve" smooth="yes"/>
      <point x="45" y="646"/>
      <point x="55" y="631"/>
      <point x="70" y="631" type="curve" smooth="yes"/>
      <point x="85" y="631"/>
      <point x="95" y="645"/>
      <point x="95" y="664" type="curve" smooth="yes"/>
      <point x="95" y="683"/>
      <point x="84" y="696"/>
      <point x="70" y="696" type="curve" smooth="yes"/>
      <point x="55" y="696"/>
      <point x="45" y="681"/>
    </contour>
  </outline>
</glyph>
<glyph name="uni0531" format="2">
  <advance width="529"/>
  <unicode hex="0531"/>
  <note>
uni0531
</note>
  <anchor x="243" y="714" name="top"/>
  <outline>
    <contour>
      <point x="243" y="-10" type="curve" smooth="yes"/>
      <point x="338" y="-10"/>
      <point x="414" y="42"/>
      <point x="414" y="217" type="curve" smooth="yes"/>
      <point x="414" y="714" type="line"/>
      <point x="388" y="714" type="line"/>
      <point x="388" y="221" type="line" smooth="yes"/>
      <point x="388" y="63"/>
      <point x="328" y="15"/>
      <point x="243" y="15" type="curve" smooth="yes"/>
      <point x="152" y="15"/>
      <point x="98" y="71"/>
      <point x="98" y="221" type="curve" smooth="yes"/>
      <point x="98" y="714" type="line"/>
      <point x="72" y="714" type="line"/>
      <point x="72" y="217" type="line" smooth="yes"/>
      <point x="72" y="59"/>
      <point x="133" y="-10"/>
    </contour>
    <contour>
      <point x="405" y="206" type="curve"/>
      <point x="405" y="181" type="line"/>
      <point x="410" y="183"/>
      <point x="417" y="184"/>
      <point x="426" y="184" type="curve" smooth="yes"/>
      <point x="471" y="184"/>
      <point x="491" y="152"/>
      <point x="491" y="87" type="curve" smooth="yes"/>
      <point x="491" y="-3" type="line"/>
      <point x="517" y="-3" type="line"/>
      <point x="517" y="88" type="line" smooth="yes"/>
      <point x="517" y="169"/>
      <point x="485" y="209"/>
      <point x="429" y="209" type="curve" smooth="yes"/>
      <point x="421" y="209"/>
      <point x="411" y="208"/>
    </contour>
  </outline>
</glyph>
<glyph name="uni0532" format="2">
  <advance width="472"/>
  <unicode hex="0532"/>
  <note>
uni0532
</note>
  <outline>
    <contour>
      <point x="72" y="0" type="line"/>
      <point x="98" y="0" type="line"/>
      <point x="98" y="493" type="line" smooth="yes"/>
      <point x="98" y="651"/>
      <point x="158" y="699"/>
      <point x="243" y="699" type="curve" smooth="yes"/>
      <point x="334" y="699"/>
      <point x="388" y="643"/>
      <point x="388" y="493" type="curve"/>
      <point x="414" y="493" type="line"/>
      <point x="414" y="655"/>
      <point x="353" y="724"/>
      <point x="243" y="724" type="curve" smooth="yes"/>
      <point x="148" y="724"/>
      <point x="72" y="672"/>
      <point x="72" y="497" type="curve" smooth="yes"/>
    </contour>
    <contour>
      <point x="91" y="328" type="line"/>
      <point x="91" y="303" type="line"/>
      <point x="414" y="303" type="line"/>
      <point x="414" y="328" type="line"/>
    </contour>
  </outline>
</glyph>
<glyph name="uni0533" format="2">
  <advance width="504"/>
  <unicode hex="0533"/>
  <note>
uni0533
</note>
  <outline>
    <contour>
      <point x="390" y="0" type="line"/>
      <point x="390" y="497" type="line" smooth="yes"/>
      <point x="390" y="672"/>
      <point x="314" y="724"/>
      <point x="219" y="724" type="curve" smooth="yes"/>
      <point x="109" y="724"/>
      <point x="48" y="655"/>
      <point x="48" y="503" type="curve" smooth="yes"/>
      <point x="48" y="380"/>
      <point x="106" y="302"/>
      <point x="222" y="302" type="curve" smooth="yes"/>
      <point x="492" y="302" type="line"/>
      <point x="492" y="327" type="line"/>
      <point x="224" y="327" type="line" smooth="yes"/>
      <point x="123" y="327"/>
      <point x="74" y="392"/>
      <point x="74" y="503" type="curve" smooth="yes"/>
      <point x="74" y="643"/>
      <point x="128" y="699"/>
      <point x="219" y="699" type="curve" smooth="yes"/>
      <point x="304" y="699"/>
      <point x="364" y="651"/>
      <point x="364" y="493" type="curve" smooth="yes"/>
      <point x="364" y="0" type="line"/>
    </contour>
  </outline>
</glyph>
<glyph name="uni0534" format="2">
  <advance width="524"/>
  <unicode hex="0534"/>
  <note>
uni0534
</note>
  <outline>
    <contour>
      <point x="384" y="0" type="line"/>
      <point x="384" y="497" type="line" smooth="yes"/>
      <point x="384" y="655"/>
      <point x="323" y="724"/>
      <point x="213" y="724" type="curve" smooth="yes"/>
      <point x="118" y="724"/>
      <point x="42" y="668"/>
      <point x="42" y="493" type="curve"/>
      <point x="68" y="493" type="line"/>
      <point x="68" y="651"/>
      <point x="128" y="699"/>
      <point x="213" y="699" type="curve" smooth="yes"/>
      <point x="304" y="699"/>
      <point x="358" y="643"/>
      <point x="358" y="493" type="curve" smooth="yes"/>
      <point x="358" y="0" type="line"/>
    </contour>
    <contour>
      <point x="375" y="327" type="line"/>
      <point x="375" y="302" type="line"/>
      <point x="512" y="302" type="line"/>
      <point x="512" y="327" type="line"/>
    </contour>
  </outline>
</glyph>
<glyph name="uni0535" format="2">
  <advance width="472"/>
  <unicode hex="0535"/>
  <note>
uni0535
</note>
  <outline>
    <contour>
      <point x="72" y="714" type="line"/>
      <point x="72" y="217" type="line" smooth="yes"/>
      <point x="72" y="42"/>
      <point x="148" y="-10"/>
      <point x="243" y="-10" type="curve" smooth="yes"/>
      <point x="353" y="-10"/>
      <point x="414" y="59"/>
      <point x="414" y="221" type="curve"/>
      <point x="388" y="221" type="line"/>
      <point x="388" y="71"/>
      <point x="334" y="15"/>
      <point x="243" y="15" type="curve" smooth="yes"/>
      <point x="158" y="15"/>
      <point x="98" y="63"/>
      <point x="98" y="221" type="curve" smooth="yes"/>
      <point x="98" y="714" type="line"/>
    </contour>
    <contour>
      <point x="91" y="609" type="line"/>
      <point x="414" y="609" type="line"/>
      <point x="414" y="634" type="line"/>
      <point x="91" y="634" type="line"/>
    </contour>
  </outline>
</glyph>
<glyph name="uni0536" format="2">
  <advance width="385"/>
  <unicode hex="0536"/>
  <note>
uni0536
</note>
  <outline>
    <contour>
      <point x="184" y="282" type="curve" smooth="yes"/>
      <point x="280" y="282"/>
      <point x="331" y="381"/>
      <point x="331" y="508" type="curve" smooth="yes"/>
      <point x="331" y="632"/>
      <point x="286" y="727"/>
      <point x="189" y="727" type="curve" smooth="yes"/>
      <point x="100" y="727"/>
      <point x="42" y="645"/>
      <point x="42" y="507" type="curve" smooth="yes"/>
      <point x="42" y="378"/>
      <point x="93" y="282"/>
    </contour>
    <contour>
      <point x="336" y="0" type="line"/>
      <point x="361" y="0" type="line"/>
      <point x="361" y="48" type="line" smooth="yes"/>
      <point x="361" y="112"/>
      <point x="335" y="145"/>
      <point x="274" y="145" type="curve" smooth="yes"/>
      <point x="79" y="145" type="line"/>
      <point x="79" y="205" type="line"/>
      <point x="53" y="205" type="line"/>
      <point x="53" y="0" type="line"/>
      <point x="79" y="0" type="line"/>
      <point x="79" y="120" type="line"/>
      <point x="265" y="120" type="line" smooth="yes"/>
      <point x="318" y="120"/>
      <point x="336" y="96"/>
      <point x="336" y="49" type="curve" smooth="yes"/>
    </contour>
    <contour>
      <point x="83" y="127" type="line"/>
      <point x="200" y="127"/>
      <point x="331" y="219"/>
      <point x="331" y="508" type="curve"/>
      <point x="309" y="508" type="line"/>
      <point x="309" y="247"/>
      <point x="193" y="145"/>
      <point x="83" y="145" type="curve"/>
    </contour>
    <contour>
      <point x="186" y="307" type="curve" smooth="yes"/>
      <point x="105" y="307"/>
      <point x="68" y="389"/>
      <point x="68" y="507" type="curve" smooth="yes"/>
      <point x="68" y="632"/>
      <point x="111" y="702"/>
      <point x="189" y="702" type="curve" smooth="yes"/>
      <point x="273" y="702"/>
      <point x="305" y="617"/>
      <point x="305" y="507" type="curve" smooth="yes"/>
      <point x="305" y="390"/>
      <point x="270" y="307"/>
    </contour>
  </outline>
</glyph>
<glyph name="uni0537" format="2">
  <advance width="407"/>
  <unicode hex="0537"/>
  <note>
uni0537
</note>
  <outline>
    <contour>
      <point x="95" y="481" type="line"/>
      <point x="95" y="456" type="line"/>
      <point x="337" y="456" type="line"/>
      <point x="337" y="481" type="line"/>
    </contour>
    <contour>
      <point x="259" y="0" type="line" smooth="yes"/>
      <point x="307" y="0"/>
      <point x="327" y="-23"/>
      <point x="327" y="-69" type="curve" smooth="yes"/>
      <point x="327" y="-143" type="line"/>
      <point x="353" y="-143" type="line"/>
      <point x="353" y="-69" type="line" smooth="yes"/>
      <point x="353" y="-8"/>
      <point x="323" y="25"/>
      <point x="263" y="25" type="curve" smooth="yes"/>
      <point x="104" y="25" type="line"/>
      <point x="104" y="717" type="line"/>
      <point x="78" y="717" type="line"/>
      <point x="78" y="0" type="line"/>
    </contour>
  </outline>
</glyph>
<glyph name="uni0538" format="2">
  <advance width="472"/>
  <unicode hex="0538"/>
  <note>
uni0538
</note>
  <outline>
    <contour>
      <point x="72" y="0" type="line"/>
      <point x="98" y="0" type="line"/>
      <point x="98" y="493" type="line" smooth="yes"/>
      <point x="98" y="651"/>
      <point x="158" y="699"/>
      <point x="243" y="699" type="curve" smooth="yes"/>
      <point x="334" y="699"/>
      <point x="388" y="643"/>
      <point x="388" y="493" type="curve"/>
      <point x="414" y="493" type="line"/>
      <point x="414" y="655"/>
      <point x="353" y="724"/>
      <point x="243" y="724" type="curve" smooth="yes"/>
      <point x="148" y="724"/>
      <point x="72" y="672"/>
      <point x="72" y="497" type="curve" smooth="yes"/>
    </contour>
    <contour>
      <point x="91" y="25" type="line"/>
      <point x="91" y="0" type="line"/>
      <point x="414" y="0" type="line"/>
      <point x="414" y="25" type="line"/>
    </contour>
  </outline>
</glyph>
<glyph name="uni0539" format="2">
  <advance width="520"/>
  <unicode hex="0539"/>
  <note>
uni0539
</note>
  <outline>
    <contour>
      <point x="72" y="0" type="line"/>
      <point x="98" y="0" type="line"/>
      <point x="98" y="493" type="line" smooth="yes"/>
      <point x="98" y="651"/>
      <point x="158" y="699"/>
      <point x="243" y="699" type="curve" smooth="yes"/>
      <point x="334" y="699"/>
      <point x="388" y="633"/>
      <point x="388" y="458" type="curve"/>
      <point x="414" y="458" type="line"/>
      <point x="414" y="645"/>
      <point x="353" y="724"/>
      <point x="243" y="724" type="curve" smooth="yes"/>
      <point x="148" y="724"/>
      <point x="72" y="672"/>
      <point x="72" y="490" type="curve" smooth="yes"/>
    </contour>
    <contour>
      <point x="508" y="469" type="line"/>
      <point x="320" y="469" type="line" smooth="yes"/>
      <point x="227" y="469"/>
      <point x="188" y="424"/>
      <point x="188" y="316" type="curve" smooth="yes"/>
      <point x="188" y="228"/>
      <point x="227" y="175"/>
      <point x="295" y="175" type="curve" smooth="yes"/>
      <point x="387" y="175"/>
      <point x="414" y="248"/>
      <point x="414" y="444" type="curve"/>
      <point x="508" y="444" type="line"/>
    </contour>
    <contour>
      <point x="388" y="444" type="line"/>
      <point x="388" y="270"/>
      <point x="366" y="200"/>
      <point x="296" y="200" type="curve" smooth="yes"/>
      <point x="244" y="200"/>
      <point x="215" y="244"/>
      <point x="215" y="316" type="curve" smooth="yes"/>
      <point x="215" y="405"/>
      <point x="241" y="444"/>
      <point x="320" y="444" type="curve" smooth="yes"/>
    </contour>
  </outline>
</glyph>
<glyph name="uni053A" format="2">
  <advance width="504"/>
  <unicode hex="053A"/>
  <note>
uni053A
</note>
  <outline>
    <contour>
      <point x="390" y="714" type="line"/>
      <point x="364" y="714" type="line"/>
      <point x="364" y="221" type="line" smooth="yes"/>
      <point x="364" y="63"/>
      <point x="304" y="15"/>
      <point x="219" y="15" type="curve" smooth="yes"/>
      <point x="128" y="15"/>
      <point x="74" y="71"/>
      <point x="74" y="231" type="curve"/>
      <point x="48" y="231" type="line"/>
      <point x="48" y="59"/>
      <point x="109" y="-10"/>
      <point x="219" y="-10" type="curve" smooth="yes"/>
      <point x="314" y="-10"/>
      <point x="390" y="42"/>
      <point x="390" y="217" type="curve" smooth="yes"/>
    </contour>
    <contour>
      <point x="245" y="482" type="line" smooth="yes"/>
      <point x="117" y="482"/>
      <point x="48" y="394"/>
      <point x="48" y="231" type="curve"/>
      <point x="74" y="231" type="line"/>
      <point x="74" y="382"/>
      <point x="133" y="457"/>
      <point x="246" y="457" type="curve" smooth="yes"/>
      <point x="492" y="457" type="line"/>
      <point x="492" y="482" type="line"/>
    </contour>
  </outline>
</glyph>
<glyph name="uni053B" format="2">
  <advance width="440"/>
  <unicode hex="053B"/>
  <note>
uni053B
</note>
  <outline>
    <contour>
      <point x="78" y="714" type="line"/>
      <point x="78" y="0" type="line"/>
      <point x="104" y="0" type="line"/>
      <point x="104" y="447" type="line"/>
      <point x="99" y="447" type="line"/>
      <point x="102" y="480"/>
      <point x="104" y="512"/>
      <point x="104" y="545" type="curve" smooth="yes"/>
      <point x="104" y="714" type="line"/>
    </contour>
    <contour>
      <point x="95" y="300" type="line"/>
      <point x="104" y="300" type="line"/>
      <point x="104" y="373" type="line" smooth="yes"/>
      <point x="104" y="440"/>
      <point x="156" y="509"/>
      <point x="250" y="509" type="curve" smooth="yes"/>
      <point x="346" y="509"/>
      <point x="372" y="464"/>
      <point x="372" y="359" type="curve" smooth="yes"/>
      <point x="372" y="277" type="line"/>
      <point x="398" y="277" type="line"/>
      <point x="398" y="371" type="line" smooth="yes"/>
      <point x="398" y="476"/>
      <point x="360" y="534"/>
      <point x="250" y="534" type="curve" smooth="yes"/>
      <point x="191" y="534"/>
      <point x="136" y="511"/>
      <point x="95" y="433" type="curve"/>
    </contour>
  </outline>
</glyph>
<glyph name="uni053C" format="2">
  <advance width="244"/>
  <unicode hex="053C"/>
  <note>
uni053C
</note>
  <outline>
    <contour>
      <point x="78" y="0" type="line"/>
      <point x="232" y="0" type="line"/>
      <point x="232" y="25" type="line"/>
      <point x="104" y="25" type="line"/>
      <point x="104" y="714" type="line"/>
      <point x="78" y="714" type="line"/>
    </contour>
  </outline>
</glyph>
<glyph name="uni053D" format="2">
  <advance width="473"/>
  <unicode hex="053D"/>
  <note>
uni053D
</note>
  <outline>
    <contour>
      <point x="78" y="-3" type="line"/>
      <point x="104" y="-3" type="line"/>
      <point x="104" y="717" type="line"/>
      <point x="78" y="717" type="line"/>
    </contour>
    <contour>
      <point x="225" y="480" type="line"/>
      <point x="225" y="339" type="line" smooth="yes"/>
      <point x="225" y="237"/>
      <point x="261" y="197"/>
      <point x="329" y="197" type="curve" smooth="yes"/>
      <point x="394" y="197"/>
      <point x="431" y="240"/>
      <point x="431" y="338" type="curve" smooth="yes"/>
      <point x="431" y="480" type="line"/>
      <point x="405" y="480" type="line"/>
      <point x="405" y="343" type="line" smooth="yes"/>
      <point x="405" y="250"/>
      <point x="376" y="222"/>
      <point x="329" y="222" type="curve" smooth="yes"/>
      <point x="279" y="222"/>
      <point x="251" y="250"/>
      <point x="251" y="343" type="curve" smooth="yes"/>
      <point x="251" y="480" type="line"/>
    </contour>
    <contour>
      <point x="91" y="480" type="line"/>
      <point x="91" y="455" type="line"/>
      <point x="246" y="455" type="line"/>
      <point x="246" y="480" type="line"/>
    </contour>
  </outline>
</glyph>
<glyph name="uni053E" format="2">
  <advance width="433"/>
  <unicode hex="053E"/>
  <note>
uni053E
</note>
  <outline>
    <contour>
      <point x="42" y="254" type="curve" smooth="yes"/>
      <point x="42" y="89"/>
      <point x="98" y="-10"/>
      <point x="214" y="-10" type="curve" smooth="yes"/>
      <point x="328" y="-10"/>
      <point x="389" y="80"/>
      <point x="389" y="252" type="curve" smooth="yes"/>
      <point x="389" y="420"/>
      <point x="304" y="523"/>
      <point x="162" y="567" type="curve" smooth="yes"/>
      <point x="91" y="589"/>
      <point x="80" y="626"/>
      <point x="76" y="714" type="curve"/>
      <point x="51" y="714" type="line"/>
      <point x="54" y="612"/>
      <point x="78" y="566"/>
      <point x="151" y="544" type="curve" smooth="yes"/>
      <point x="286" y="504"/>
      <point x="362" y="408"/>
      <point x="362" y="252" type="curve" smooth="yes"/>
      <point x="362" y="98"/>
      <point x="317" y="15"/>
      <point x="214" y="15" type="curve" smooth="yes"/>
      <point x="116" y="15"/>
      <point x="69" y="98"/>
      <point x="69" y="249" type="curve" smooth="yes"/>
      <point x="69" y="497"/>
      <point x="236" y="699"/>
      <point x="385" y="699" type="curve"/>
      <point x="385" y="724" type="line"/>
      <point x="221" y="724"/>
      <point x="42" y="510"/>
    </contour>
  </outline>
</glyph>
<glyph name="uni053F" format="2">
  <advance width="450"/>
  <unicode hex="053F"/>
  <note>
uni053F
</note>
  <outline>
    <contour>
      <point x="372" y="0" type="line"/>
      <point x="372" y="524" type="line"/>
      <point x="346" y="524" type="line"/>
      <point x="346" y="319" type="line"/>
      <point x="351" y="319" type="line"/>
      <point x="348" y="286"/>
      <point x="346" y="254"/>
      <point x="346" y="221" type="curve" smooth="yes"/>
      <point x="346" y="0" type="line"/>
    </contour>
    <contour>
      <point x="355" y="457" type="line"/>
      <point x="346" y="457" type="line"/>
      <point x="346" y="389" type="line" smooth="yes"/>
      <point x="346" y="322"/>
      <point x="294" y="248"/>
      <point x="211" y="248" type="curve" smooth="yes"/>
      <point x="104" y="248"/>
      <point x="78" y="293"/>
      <point x="78" y="398" type="curve" smooth="yes"/>
      <point x="78" y="714" type="line"/>
      <point x="52" y="714" type="line"/>
      <point x="52" y="386" type="line" smooth="yes"/>
      <point x="52" y="281"/>
      <point x="90" y="223"/>
      <point x="210" y="223" type="curve" smooth="yes"/>
      <point x="264" y="223"/>
      <point x="355" y="261"/>
      <point x="355" y="372" type="curve" smooth="yes"/>
    </contour>
  </outline>
</glyph>
<glyph name="uni0540" format="2">
  <advance width="347"/>
  <unicode hex="0540"/>
  <note>
uni0540
</note>
  <outline>
    <contour>
      <point x="324" y="681" type="curve"/>
      <point x="337" y="703" type="line"/>
      <point x="312" y="717"/>
      <point x="283" y="724"/>
      <point x="248" y="724" type="curve" smooth="yes"/>
      <point x="153" y="724"/>
      <point x="90" y="672"/>
      <point x="76" y="498" type="curve" smooth="yes"/>
      <point x="42" y="74" type="line"/>
      <point x="68" y="73" type="line"/>
      <point x="102" y="492" type="line" smooth="yes"/>
      <point x="115" y="649"/>
      <point x="163" y="699"/>
      <point x="248" y="699" type="curve" smooth="yes"/>
      <point x="277" y="699"/>
      <point x="303" y="693"/>
    </contour>
    <contour>
      <point x="42" y="74" type="line"/>
      <point x="220" y="40" type="line" smooth="yes"/>
      <point x="273" y="30"/>
      <point x="291" y="14"/>
      <point x="291" y="-33" type="curve" smooth="yes"/>
      <point x="291" y="-62" type="line"/>
      <point x="316" y="-62" type="line"/>
      <point x="316" y="-34" type="line" smooth="yes"/>
      <point x="316" y="30"/>
      <point x="290" y="53"/>
      <point x="229" y="64" type="curve" smooth="yes"/>
      <point x="52" y="97" type="line"/>
    </contour>
  </outline>
</glyph>
<glyph name="uni0541" format="2">
  <advance width="385"/>
  <unicode hex="0541"/>
  <note>
uni0541
</note>
  <outline>
    <contour>
      <point x="189" y="724" type="curve" smooth="yes"/>
      <point x="96" y="724"/>
      <point x="42" y="642"/>
      <point x="42" y="507" type="curve" smooth="yes"/>
      <point x="42" y="378"/>
      <point x="86" y="302"/>
      <point x="175" y="302" type="curve" smooth="yes"/>
      <point x="222" y="302"/>
      <point x="270" y="319"/>
      <point x="313" y="359" type="curve"/>
      <point x="313" y="387" type="line"/>
      <point x="280" y="351"/>
      <point x="221" y="327"/>
      <point x="175" y="327" type="curve" smooth="yes"/>
      <point x="110" y="327"/>
      <point x="68" y="389"/>
      <point x="68" y="507" type="curve" smooth="yes"/>
      <point x="68" y="627"/>
      <point x="109" y="699"/>
      <point x="189" y="699" type="curve" smooth="yes"/>
      <point x="268" y="699"/>
      <point x="305" y="614"/>
      <point x="305" y="439" type="curve" smooth="yes"/>
      <point x="305" y="153"/>
      <point x="224" y="15"/>
      <point x="143" y="15" type="curve"/>
      <point x="143" y="-10" type="line"/>
      <point x="236" y="-10"/>
      <point x="331" y="122"/>
      <point x="331" y="441" type="curve" smooth="yes"/>
      <point x="331" y="629"/>
      <point x="288" y="724"/>
    </contour>
    <contour>
      <point x="354" y="-9" type="curve"/>
      <point x="354" y="43" type="line"/>
      <point x="294" y="180"/>
      <point x="229" y="236"/>
      <point x="144" y="236" type="curve" smooth="yes"/>
      <point x="78" y="236"/>
      <point x="40" y="188"/>
      <point x="40" y="114" type="curve" smooth="yes"/>
      <point x="40" y="36"/>
      <point x="75" y="-10"/>
      <point x="143" y="-10" type="curve"/>
      <point x="143" y="15" type="line"/>
      <point x="91" y="15"/>
      <point x="66" y="55"/>
      <point x="66" y="114" type="curve" smooth="yes"/>
      <point x="66" y="174"/>
      <point x="94" y="211"/>
      <point x="144" y="211" type="curve" smooth="yes"/>
      <point x="223" y="211"/>
      <point x="287" y="145"/>
    </contour>
  </outline>
</glyph>
<glyph name="uni0543" format="2">
  <advance width="457"/>
  <unicode hex="0543"/>
  <note>
uni0543
</note>
  <outline>
    <contour>
      <point x="391" y="699" type="curve"/>
      <point x="391" y="724" type="line"/>
      <point x="227" y="694"/>
      <point x="48" y="500"/>
      <point x="48" y="175" type="curve" smooth="yes"/>
      <point x="48" y="35"/>
      <point x="92" y="0"/>
      <point x="200" y="0" type="curve" smooth="yes"/>
      <point x="395" y="0" type="line"/>
      <point x="395" y="252" type="line" smooth="yes"/>
      <point x="395" y="430"/>
      <point x="363" y="562"/>
      <point x="197" y="598" type="curve" smooth="yes"/>
      <point x="55" y="629" type="line"/>
      <point x="55" y="603" type="line"/>
      <point x="186" y="575" type="line" smooth="yes"/>
      <point x="344" y="541"/>
      <point x="368" y="417"/>
      <point x="368" y="252" type="curve" smooth="yes"/>
      <point x="368" y="25" type="line"/>
      <point x="200" y="25" type="line" smooth="yes"/>
      <point x="113" y="25"/>
      <point x="75" y="55"/>
      <point x="75" y="174" type="curve" smooth="yes"/>
      <point x="75" y="487"/>
      <point x="242" y="669"/>
    </contour>
  </outline>
</glyph>
<glyph name="uni0544" format="2">
  <advance width="554"/>
  <unicode hex="0544"/>
  <note>
uni0544
</note>
  <outline>
    <contour>
      <point x="243" y="-10" type="curve" smooth="yes"/>
      <point x="353" y="-10"/>
      <point x="414" y="59"/>
      <point x="414" y="217" type="curve" smooth="yes"/>
      <point x="414" y="689" type="line"/>
      <point x="542" y="689" type="line"/>
      <point x="542" y="714" type="line"/>
      <point x="388" y="714" type="line"/>
      <point x="388" y="221" type="line" smooth="yes"/>
      <point x="388" y="71"/>
      <point x="334" y="15"/>
      <point x="243" y="15" type="curve" smooth="yes"/>
      <point x="158" y="15"/>
      <point x="98" y="63"/>
      <point x="98" y="221" type="curve" smooth="yes"/>
      <point x="98" y="714" type="line"/>
      <point x="72" y="714" type="line"/>
      <point x="72" y="217" type="line" smooth="yes"/>
      <point x="72" y="42"/>
      <point x="148" y="-10"/>
    </contour>
  </outline>
</glyph>
<glyph name="uni0545" format="2">
  <advance width="391"/>
  <unicode hex="0545"/>
  <note>
uni0545
</note>
  <outline>
    <contour>
      <point x="317" y="556" type="curve" smooth="yes"/>
      <point x="317" y="659"/>
      <point x="264" y="724"/>
      <point x="174" y="724" type="curve" smooth="yes"/>
      <point x="126" y="724"/>
      <point x="88" y="705"/>
      <point x="59" y="672" type="curve"/>
      <point x="77" y="655" type="line"/>
      <point x="100" y="680"/>
      <point x="130" y="699"/>
      <point x="173" y="699" type="curve" smooth="yes"/>
      <point x="244" y="699"/>
      <point x="290" y="646"/>
      <point x="290" y="556" type="curve" smooth="yes"/>
      <point x="290" y="446"/>
      <point x="228" y="381"/>
      <point x="139" y="381" type="curve" smooth="yes"/>
      <point x="36" y="381" type="line"/>
      <point x="36" y="356" type="line"/>
      <point x="139" y="356" type="line" smooth="yes"/>
      <point x="245" y="356"/>
      <point x="302" y="299"/>
      <point x="302" y="189" type="curve" smooth="yes"/>
      <point x="302" y="69"/>
      <point x="241" y="15"/>
      <point x="158" y="15" type="curve" smooth="yes"/>
      <point x="122" y="15"/>
      <point x="80" y="25"/>
      <point x="48" y="45" type="curve"/>
      <point x="48" y="15" type="line"/>
      <point x="82" y="-2"/>
      <point x="122" y="-10"/>
      <point x="158" y="-10" type="curve" smooth="yes"/>
      <point x="264" y="-10"/>
      <point x="329" y="61"/>
      <point x="329" y="187" type="curve" smooth="yes"/>
      <point x="329" y="290"/>
      <point x="282" y="357"/>
      <point x="197" y="368" type="curve"/>
      <point x="197" y="371" type="line"/>
      <point x="272" y="391"/>
      <point x="317" y="456"/>
    </contour>
  </outline>
</glyph>
<glyph name="uni0546" format="2">
  <advance width="459"/>
  <unicode hex="0546"/>
  <note>
uni0546
</note>
  <outline>
    <contour>
      <point x="235" y="-10" type="curve" smooth="yes"/>
      <point x="330" y="-10"/>
      <point x="411" y="42"/>
      <point x="411" y="217" type="curve" smooth="yes"/>
      <point x="411" y="414" type="line"/>
      <point x="385" y="414" type="line"/>
      <point x="385" y="221" type="line" smooth="yes"/>
      <point x="385" y="63"/>
      <point x="320" y="15"/>
      <point x="235" y="15" type="curve" smooth="yes"/>
      <point x="144" y="15"/>
      <point x="85" y="71"/>
      <point x="85" y="221" type="curve"/>
      <point x="59" y="221" type="line"/>
      <point x="59" y="59"/>
      <point x="125" y="-10"/>
    </contour>
    <contour>
      <point x="162" y="623" type="line"/>
      <point x="121" y="623" type="line" smooth="yes"/>
      <point x="71" y="623"/>
      <point x="56" y="632"/>
      <point x="56" y="687" type="curve" smooth="yes"/>
      <point x="56" y="760" type="line"/>
      <point x="30" y="760" type="line"/>
      <point x="30" y="686" type="line" smooth="yes"/>
      <point x="30" y="615"/>
      <point x="54" y="598"/>
      <point x="118" y="598" type="curve" smooth="yes"/>
      <point x="156" y="598" type="line"/>
      <point x="166" y="615" type="line"/>
    </contour>
    <contour>
      <point x="85" y="221" type="line"/>
      <point x="85" y="364"/>
      <point x="119" y="485"/>
      <point x="166" y="615" type="curve"/>
      <point x="139" y="615" type="line"/>
      <point x="92" y="486"/>
      <point x="59" y="362"/>
      <point x="59" y="221" type="curve"/>
    </contour>
  </outline>
</glyph>
<glyph name="uni0547" format="2">
  <advance width="483"/>
  <unicode hex="0547"/>
  <note>
uni0547
</note>
  <outline>
    <contour>
      <point x="258" y="638" type="curve"/>
      <point x="239" y="656" type="line"/>
      <point x="124" y="537"/>
      <point x="59" y="383"/>
      <point x="59" y="217" type="curve" smooth="yes"/>
      <point x="59" y="59"/>
      <point x="125" y="-10"/>
      <point x="235" y="-10" type="curve" smooth="yes"/>
      <point x="330" y="-10"/>
      <point x="411" y="42"/>
      <point x="411" y="217" type="curve" smooth="yes"/>
      <point x="411" y="314" type="line"/>
      <point x="385" y="314" type="line"/>
      <point x="385" y="221" type="line" smooth="yes"/>
      <point x="385" y="63"/>
      <point x="320" y="15"/>
      <point x="235" y="15" type="curve" smooth="yes"/>
      <point x="144" y="15"/>
      <point x="85" y="71"/>
      <point x="85" y="221" type="curve" smooth="yes"/>
      <point x="85" y="385"/>
      <point x="144" y="520"/>
    </contour>
    <contour>
      <point x="64" y="724" type="line"/>
      <point x="56" y="701" type="line"/>
      <point x="426" y="564" type="line"/>
      <point x="435" y="587" type="line"/>
    </contour>
  </outline>
</glyph>
<glyph name="uni0549" format="2">
  <advance width="453"/>
  <unicode hex="0549"/>
  <note>
uni0549
</note>
  <outline>
    <contour>
      <point x="215" y="85" type="line"/>
      <point x="330" y="203"/>
      <point x="397" y="367"/>
      <point x="397" y="517" type="curve" smooth="yes"/>
      <point x="397" y="655"/>
      <point x="331" y="724"/>
      <point x="221" y="724" type="curve" smooth="yes"/>
      <point x="126" y="724"/>
      <point x="45" y="672"/>
      <point x="45" y="497" type="curve" smooth="yes"/>
      <point x="45" y="470" type="line"/>
      <point x="71" y="470" type="line"/>
      <point x="71" y="493" type="line" smooth="yes"/>
      <point x="71" y="651"/>
      <point x="136" y="699"/>
      <point x="221" y="699" type="curve" smooth="yes"/>
      <point x="312" y="699"/>
      <point x="371" y="643"/>
      <point x="371" y="517" type="curve" smooth="yes"/>
      <point x="371" y="379"/>
      <point x="301" y="209"/>
      <point x="191" y="96" type="curve"/>
    </contour>
    <contour>
      <point x="370" y="0" type="curve"/>
      <point x="370" y="23" type="line"/>
      <point x="247" y="69"/>
      <point x="140" y="123"/>
      <point x="65" y="231" type="curve"/>
      <point x="44" y="217" type="line"/>
      <point x="120" y="108"/>
      <point x="238" y="46"/>
    </contour>
  </outline>
</glyph>
<glyph name="uni054A" format="2">
  <advance width="466"/>
  <unicode hex="054A"/>
  <note>
uni054A
</note>
  <outline>
    <contour>
      <point x="52" y="330" type="line"/>
      <point x="78" y="330" type="line"/>
      <point x="78" y="493" type="line" smooth="yes"/>
      <point x="78" y="651"/>
      <point x="138" y="699"/>
      <point x="223" y="699" type="curve" smooth="yes"/>
      <point x="314" y="699"/>
      <point x="368" y="643"/>
      <point x="368" y="493" type="curve" smooth="yes"/>
      <point x="368" y="0" type="line"/>
      <point x="394" y="0" type="line"/>
      <point x="394" y="497" type="line" smooth="yes"/>
      <point x="394" y="655"/>
      <point x="333" y="724"/>
      <point x="223" y="724" type="curve" smooth="yes"/>
      <point x="128" y="724"/>
      <point x="52" y="672"/>
      <point x="52" y="497" type="curve" smooth="yes"/>
    </contour>
    <contour>
      <point x="210" y="167" type="line"/>
      <point x="236" y="167" type="line"/>
      <point x="236" y="711" type="line"/>
      <point x="210" y="711" type="line"/>
    </contour>
  </outline>
</glyph>
<glyph name="uni054B" format="2">
  <advance width="418"/>
  <unicode hex="054B"/>
  <note>
uni054B
</note>
  <outline>
    <contour>
      <point x="369" y="0" type="line"/>
      <point x="394" y="0" type="line"/>
      <point x="394" y="48" type="line" smooth="yes"/>
      <point x="394" y="112"/>
      <point x="368" y="145"/>
      <point x="307" y="145" type="curve" smooth="yes"/>
      <point x="82" y="145" type="line"/>
      <point x="82" y="205" type="line"/>
      <point x="56" y="205" type="line"/>
      <point x="56" y="0" type="line"/>
      <point x="82" y="0" type="line"/>
      <point x="82" y="120" type="line"/>
      <point x="298" y="120" type="line" smooth="yes"/>
      <point x="351" y="120"/>
      <point x="369" y="96"/>
      <point x="369" y="49" type="curve" smooth="yes"/>
    </contour>
    <contour>
      <point x="179" y="160" type="curve"/>
      <point x="178" y="233"/>
      <point x="154" y="274"/>
      <point x="123" y="320" type="curve" smooth="yes"/>
      <point x="86" y="374"/>
      <point x="68" y="419"/>
      <point x="68" y="498" type="curve" smooth="yes"/>
      <point x="68" y="627"/>
      <point x="114" y="699"/>
      <point x="208" y="699" type="curve" smooth="yes"/>
      <point x="298" y="699"/>
      <point x="344" y="628"/>
      <point x="344" y="489" type="curve" smooth="yes"/>
      <point x="344" y="371"/>
      <point x="300" y="262"/>
    </contour>
    <contour>
      <point x="121" y="145" type="curve"/>
      <point x="194" y="145" type="line"/>
      <point x="329" y="254"/>
      <point x="370" y="367"/>
      <point x="370" y="488" type="curve" smooth="yes"/>
      <point x="370" y="651"/>
      <point x="309" y="724"/>
      <point x="208" y="724" type="curve" smooth="yes"/>
      <point x="102" y="724"/>
      <point x="42" y="640"/>
      <point x="42" y="498" type="curve" smooth="yes"/>
      <point x="42" y="421"/>
      <point x="60" y="365"/>
      <point x="106" y="300" type="curve" smooth="yes"/>
      <point x="144" y="246"/>
      <point x="155" y="214"/>
      <point x="156" y="152" type="curve"/>
      <point x="150" y="150"/>
      <point x="133" y="146"/>
    </contour>
  </outline>
</glyph>
<glyph name="uni054C" format="2">
  <advance width="554"/>
  <unicode hex="054C"/>
  <note>
uni054C
</note>
  <outline>
    <contour>
      <point x="72" y="0" type="line"/>
      <point x="98" y="0" type="line"/>
      <point x="98" y="493" type="line" smooth="yes"/>
      <point x="98" y="651"/>
      <point x="158" y="699"/>
      <point x="243" y="699" type="curve" smooth="yes"/>
      <point x="334" y="699"/>
      <point x="388" y="643"/>
      <point x="388" y="493" type="curve" smooth="yes"/>
      <point x="388" y="0" type="line"/>
      <point x="414" y="0" type="line"/>
      <point x="414" y="497" type="line" smooth="yes"/>
      <point x="414" y="655"/>
      <point x="353" y="724"/>
      <point x="243" y="724" type="curve" smooth="yes"/>
      <point x="148" y="724"/>
      <point x="72" y="672"/>
      <point x="72" y="497" type="curve" smooth="yes"/>
    </contour>
    <contour>
      <point x="405" y="328" type="line"/>
      <point x="405" y="303" type="line"/>
      <point x="542" y="303" type="line"/>
      <point x="542" y="328" type="line"/>
    </contour>
  </outline>
</glyph>
<glyph name="uni054D" format="2">
  <advance width="486"/>
  <unicode hex="054D"/>
  <note>
uni054D
</note>
  <outline>
    <contour>
      <point x="414" y="714" type="line"/>
      <point x="388" y="714" type="line"/>
      <point x="388" y="221" type="line" smooth="yes"/>
      <point x="388" y="63"/>
      <point x="328" y="15"/>
      <point x="243" y="15" type="curve" smooth="yes"/>
      <point x="152" y="15"/>
      <point x="98" y="71"/>
      <point x="98" y="221" type="curve" smooth="yes"/>
      <point x="98" y="714" type="line"/>
      <point x="72" y="714" type="line"/>
      <point x="72" y="217" type="line" smooth="yes"/>
      <point x="72" y="59"/>
      <point x="133" y="-10"/>
      <point x="243" y="-10" type="curve" smooth="yes"/>
      <point x="338" y="-10"/>
      <point x="414" y="42"/>
      <point x="414" y="217" type="curve" smooth="yes"/>
    </contour>
  </outline>
</glyph>
<glyph name="uni054E" format="2">
  <advance width="512"/>
  <unicode hex="054E"/>
  <note>
uni054E
</note>
  <outline>
    <contour>
      <point x="372" y="0" type="line"/>
      <point x="372" y="714" type="line"/>
      <point x="346" y="714" type="line"/>
      <point x="346" y="259" type="line"/>
      <point x="351" y="259" type="line"/>
      <point x="348" y="226"/>
      <point x="346" y="194"/>
      <point x="346" y="161" type="curve" smooth="yes"/>
      <point x="346" y="0" type="line"/>
    </contour>
    <contour>
      <point x="355" y="397" type="line"/>
      <point x="346" y="397" type="line"/>
      <point x="346" y="329" type="line" smooth="yes"/>
      <point x="346" y="262"/>
      <point x="294" y="188"/>
      <point x="211" y="188" type="curve" smooth="yes"/>
      <point x="104" y="188"/>
      <point x="78" y="233"/>
      <point x="78" y="338" type="curve" smooth="yes"/>
      <point x="78" y="494" type="line"/>
      <point x="52" y="494" type="line"/>
      <point x="52" y="326" type="line" smooth="yes"/>
      <point x="52" y="221"/>
      <point x="90" y="163"/>
      <point x="210" y="163" type="curve" smooth="yes"/>
      <point x="264" y="163"/>
      <point x="355" y="201"/>
      <point x="355" y="312" type="curve" smooth="yes"/>
    </contour>
    <contour>
      <point x="363" y="25" type="line"/>
      <point x="363" y="0" type="line"/>
      <point x="500" y="0" type="line"/>
      <point x="500" y="25" type="line"/>
    </contour>
  </outline>
</glyph>
<glyph name="uni054F" format="2">
  <advance width="389"/>
  <unicode hex="054F"/>
  <note>
uni054F
</note>
  <outline>
    <contour>
      <point x="346" y="185" type="curve" smooth="yes"/>
      <point x="346" y="264"/>
      <point x="311" y="309"/>
      <point x="201" y="376" type="curve" smooth="yes"/>
      <point x="111" y="431"/>
      <point x="74" y="467"/>
      <point x="74" y="545" type="curve" smooth="yes"/>
      <point x="74" y="640"/>
      <point x="125" y="699"/>
      <point x="219" y="699" type="curve" smooth="yes"/>
      <point x="246" y="699"/>
      <point x="287" y="694"/>
      <point x="326" y="674" type="curve"/>
      <point x="337" y="696" type="line"/>
      <point x="310" y="711"/>
      <point x="264" y="724"/>
      <point x="219" y="724" type="curve" smooth="yes"/>
      <point x="117" y="724"/>
      <point x="47" y="663"/>
      <point x="47" y="545" type="curve" smooth="yes"/>
      <point x="47" y="451"/>
      <point x="92" y="413"/>
      <point x="189" y="354" type="curve" smooth="yes"/>
      <point x="296" y="289"/>
      <point x="319" y="245"/>
      <point x="319" y="185" type="curve" smooth="yes"/>
      <point x="319" y="82"/>
      <point x="272" y="16"/>
      <point x="172" y="16" type="curve" smooth="yes"/>
      <point x="129" y="16"/>
      <point x="77" y="28"/>
      <point x="42" y="44" type="curve"/>
      <point x="42" y="15" type="line"/>
      <point x="81" y="-2"/>
      <point x="134" y="-10"/>
      <point x="172" y="-10" type="curve" smooth="yes"/>
      <point x="284" y="-10"/>
      <point x="346" y="59"/>
    </contour>
  </outline>
</glyph>
<glyph name="uni0550" format="2">
  <advance width="456"/>
  <unicode hex="0550"/>
  <note>
uni0550
</note>
  <outline>
    <contour>
      <point x="72" y="0" type="line"/>
      <point x="98" y="0" type="line"/>
      <point x="98" y="493" type="line" smooth="yes"/>
      <point x="98" y="651"/>
      <point x="158" y="699"/>
      <point x="243" y="699" type="curve" smooth="yes"/>
      <point x="334" y="699"/>
      <point x="388" y="643"/>
      <point x="388" y="493" type="curve"/>
      <point x="414" y="493" type="line"/>
      <point x="414" y="655"/>
      <point x="353" y="724"/>
      <point x="243" y="724" type="curve" smooth="yes"/>
      <point x="148" y="724"/>
      <point x="72" y="672"/>
      <point x="72" y="497" type="curve" smooth="yes"/>
    </contour>
  </outline>
</glyph>
<glyph name="uni0551" format="2">
  <advance width="400"/>
  <unicode hex="0551"/>
  <note>
uni0551
</note>
  <outline>
    <contour>
      <point x="197" y="381" type="line"/>
      <point x="93" y="422"/>
      <point x="62" y="482"/>
      <point x="62" y="566" type="curve" smooth="yes"/>
      <point x="62" y="646"/>
      <point x="110" y="699"/>
      <point x="192" y="699" type="curve" smooth="yes"/>
      <point x="265" y="699"/>
      <point x="319" y="648"/>
      <point x="319" y="562" type="curve" smooth="yes"/>
      <point x="319" y="456"/>
      <point x="262" y="400"/>
      <point x="194" y="386" type="curve" smooth="yes"/>
      <point x="45" y="355" type="line"/>
      <point x="49" y="332" type="line"/>
      <point x="186" y="360" type="line"/>
      <point x="293" y="325"/>
      <point x="333" y="259"/>
      <point x="333" y="170" type="curve" smooth="yes"/>
      <point x="333" y="85"/>
      <point x="273" y="15"/>
      <point x="180" y="15" type="curve" smooth="yes"/>
      <point x="120" y="15"/>
      <point x="65" y="30"/>
      <point x="32" y="58" type="curve"/>
      <point x="32" y="28" type="line"/>
      <point x="70" y="4"/>
      <point x="110" y="-10"/>
      <point x="179" y="-10" type="curve" smooth="yes"/>
      <point x="292" y="-10"/>
      <point x="360" y="70"/>
      <point x="360" y="172" type="curve" smooth="yes"/>
      <point x="360" y="272"/>
      <point x="311" y="339"/>
      <point x="225" y="370" type="curve"/>
      <point x="225" y="372" type="line"/>
      <point x="287" y="389"/>
      <point x="345" y="452"/>
      <point x="345" y="562" type="curve" smooth="yes"/>
      <point x="345" y="662"/>
      <point x="285" y="724"/>
      <point x="192" y="724" type="curve" smooth="yes"/>
      <point x="101" y="724"/>
      <point x="36" y="660"/>
      <point x="36" y="567" type="curve" smooth="yes"/>
      <point x="36" y="471"/>
      <point x="75" y="404"/>
      <point x="163" y="372" type="curve"/>
    </contour>
  </outline>
</glyph>
<glyph name="uni0552" format="2">
  <advance width="379"/>
  <unicode hex="0552"/>
  <note>
uni0552
</note>
  <outline>
    <contour>
      <point x="78" y="-3" type="line"/>
      <point x="104" y="-3" type="line"/>
      <point x="104" y="488" type="line"/>
      <point x="132" y="488" type="line" smooth="yes"/>
      <point x="189" y="488"/>
      <point x="202" y="480"/>
      <point x="239" y="362" type="curve" smooth="yes"/>
      <point x="274" y="250"/>
      <point x="291" y="232"/>
      <point x="337" y="232" type="curve" smooth="yes"/>
      <point x="367" y="232" type="line"/>
      <point x="367" y="257" type="line"/>
      <point x="346" y="257" type="line" smooth="yes"/>
      <point x="310" y="257"/>
      <point x="296" y="270"/>
      <point x="264" y="371" type="curve" smooth="yes"/>
      <point x="225" y="494"/>
      <point x="205" y="513"/>
      <point x="136" y="513" type="curve" smooth="yes"/>
      <point x="104" y="513" type="line"/>
      <point x="104" y="717" type="line"/>
      <point x="78" y="717" type="line"/>
    </contour>
  </outline>
</glyph>
<glyph name="uni0553" format="2">
  <advance width="512"/>
  <unicode hex="0553"/>
  <note>
uni0553
</note>
  <outline>
    <contour>
      <point x="269" y="714" type="line"/>
      <point x="243" y="714" type="line"/>
      <point x="243" y="637" type="line"/>
      <point x="137" y="634"/>
      <point x="46" y="544"/>
      <point x="46" y="373" type="curve" smooth="yes"/>
      <point x="46" y="195"/>
      <point x="144" y="99"/>
      <point x="243" y="99" type="curve"/>
      <point x="243" y="0" type="line"/>
      <point x="269" y="0" type="line"/>
      <point x="269" y="99" type="line"/>
      <point x="380" y="103"/>
      <point x="466" y="194"/>
      <point x="466" y="371" type="curve" smooth="yes"/>
      <point x="466" y="549"/>
      <point x="379" y="635"/>
      <point x="269" y="637" type="curve"/>
    </contour>
    <contour>
      <point x="243" y="613" type="curve"/>
      <point x="243" y="124" type="line"/>
      <point x="162" y="124"/>
      <point x="73" y="209"/>
      <point x="73" y="372" type="curve" smooth="yes"/>
      <point x="73" y="529"/>
      <point x="154" y="611"/>
    </contour>
    <contour>
      <point x="269" y="613" type="line"/>
      <point x="361" y="611"/>
      <point x="439" y="538"/>
      <point x="439" y="373" type="curve" smooth="yes"/>
      <point x="439" y="207"/>
      <point x="360" y="128"/>
      <point x="269" y="124" type="curve"/>
    </contour>
  </outline>
</glyph>
<glyph name="uni0554" format="2">
  <advance width="418"/>
  <unicode hex="0554"/>
  <note>
uni0554
</note>
  <outline>
    <contour>
      <point x="76" y="0" type="line"/>
      <point x="102" y="0" type="line"/>
      <point x="102" y="357" type="line"/>
      <point x="212" y="357" type="line" smooth="yes"/>
      <point x="316" y="357"/>
      <point x="382" y="425"/>
      <point x="382" y="548" type="curve" smooth="yes"/>
      <point x="382" y="664"/>
      <point x="327" y="724"/>
      <point x="229" y="724" type="curve" smooth="yes"/>
      <point x="135" y="724"/>
      <point x="76" y="659"/>
      <point x="76" y="382" type="curve" smooth="yes"/>
    </contour>
    <contour>
      <point x="102" y="382" type="line"/>
      <point x="102" y="618"/>
      <point x="142" y="699"/>
      <point x="229" y="699" type="curve" smooth="yes"/>
      <point x="309" y="699"/>
      <point x="356" y="651"/>
      <point x="356" y="548" type="curve" smooth="yes"/>
      <point x="356" y="433"/>
      <point x="294" y="382"/>
      <point x="206" y="382" type="curve" smooth="yes"/>
    </contour>
    <contour>
      <point x="12" y="284" type="line"/>
      <point x="12" y="259" type="line"/>
      <point x="359" y="259" type="line"/>
      <point x="359" y="284" type="line"/>
    </contour>
  </outline>
</glyph>
<glyph name="uni0555" format="2">
  <advance width="511"/>
  <unicode hex="0555"/>
  <note>
uni0555
</note>
  <anchor x="255" y="714" name="top"/>
  <outline>
    <contour>
      <point x="457" y="358" type="curve" smooth="yes"/>
      <point x="457" y="570"/>
      <point x="404" y="724"/>
      <point x="257" y="724" type="curve" smooth="yes"/>
      <point x="126" y="724"/>
      <point x="54" y="602"/>
      <point x="54" y="358" type="curve" smooth="yes"/>
      <point x="54" y="173"/>
      <point x="97" y="-10"/>
      <point x="257" y="-10" type="curve" smooth="yes"/>
      <point x="416" y="-10"/>
      <point x="457" y="165"/>
    </contour>
    <contour>
      <point x="80" y="358" type="curve" smooth="yes"/>
      <point x="80" y="574"/>
      <point x="137" y="699"/>
      <point x="257" y="699" type="curve" smooth="yes"/>
      <point x="374" y="699"/>
      <point x="431" y="577"/>
      <point x="431" y="358" type="curve" smooth="yes"/>
      <point x="431" y="135"/>
      <point x="374" y="15"/>
      <point x="257" y="15" type="curve" smooth="yes"/>
      <point x="143" y="15"/>
      <point x="80" y="141"/>
    </contour>
  </outline>
</glyph>
<glyph name="uni0556" format="2">
  <advance width="417"/>
  <unicode hex="0556"/>
  <note>
uni0556
</note>
  <outline>
    <contour>
      <point x="204" y="-10" type="curve" smooth="yes"/>
      <point x="328" y="-10"/>
      <point x="381" y="64"/>
      <point x="381" y="197" type="curve" smooth="yes"/>
      <point x="381" y="311"/>
      <point x="345" y="375"/>
      <point x="218" y="408" type="curve"/>
      <point x="218" y="714" type="line"/>
      <point x="163" y="714" type="line" smooth="yes"/>
      <point x="88" y="714"/>
      <point x="43" y="655"/>
      <point x="43" y="566" type="curve" smooth="yes"/>
      <point x="43" y="460"/>
      <point x="86" y="406"/>
      <point x="192" y="386" type="curve"/>
      <point x="192" y="15" type="line"/>
      <point x="130" y="17"/>
      <point x="72" y="30"/>
      <point x="32" y="49" type="curve"/>
      <point x="32" y="22" type="line"/>
      <point x="73" y="5"/>
      <point x="129" y="-10"/>
    </contour>
    <contour>
      <point x="218" y="15" type="curve"/>
      <point x="218" y="382" type="line"/>
      <point x="319" y="358"/>
      <point x="354" y="304"/>
      <point x="354" y="197" type="curve" smooth="yes"/>
      <point x="354" y="87"/>
      <point x="312" y="15"/>
    </contour>
    <contour>
      <point x="192" y="412" type="line"/>
      <point x="102" y="430"/>
      <point x="69" y="477"/>
      <point x="69" y="567" type="curve" smooth="yes"/>
      <point x="69" y="638"/>
      <point x="100" y="689"/>
      <point x="163" y="689" type="curve" smooth="yes"/>
      <point x="192" y="689" type="line"/>
    </contour>
  </outline>
</glyph>
<glyph name="uni0559" format="2">
  <advance width="109"/>
  <unicode hex="0559"/>
  <note>
uni0559
</note>
  <outline>
    <contour>
      <point x="86" y="442" type="curve"/>
      <point x="86" y="467" type="line"/>
      <point x="55" y="467"/>
      <point x="37" y="493"/>
      <point x="37" y="563" type="curve" smooth="yes"/>
      <point x="37" y="638"/>
      <point x="54" y="697"/>
      <point x="89" y="753" type="curve"/>
      <point x="76" y="763" type="line"/>
      <point x="33" y="713"/>
      <point x="12" y="643"/>
      <point x="12" y="564" type="curve" smooth="yes"/>
      <point x="12" y="479"/>
      <point x="43" y="442"/>
    </contour>
  </outline>
</glyph>
<glyph name="uni055A" format="2">
  <advance width="109"/>
  <unicode hex="055A"/>
  <note>
uni055A
</note>
  <outline>
    <contour>
      <point x="23" y="763" type="curve"/>
      <point x="23" y="738" type="line"/>
      <point x="54" y="738"/>
      <point x="72" y="712"/>
      <point x="72" y="642" type="curve" smooth="yes"/>
      <point x="72" y="567"/>
      <point x="55" y="508"/>
      <point x="20" y="452" type="curve"/>
      <point x="33" y="442" type="line"/>
      <point x="76" y="492"/>
      <point x="97" y="562"/>
      <point x="97" y="641" type="curve" smooth="yes"/>
      <point x="97" y="726"/>
      <point x="66" y="763"/>
    </contour>
  </outline>
</glyph>
<glyph name="uni055B" format="2">
  <advance width="115"/>
  <unicode hex="055B"/>
  <note>
uni055B
</note>
  <outline>
    <contour>
      <point x="82" y="814" type="line"/>
      <point x="60" y="814" type="line"/>
      <point x="57" y="734"/>
      <point x="43" y="642"/>
      <point x="24" y="569" type="curve"/>
      <point x="45" y="569" type="line"/>
      <point x="65" y="633"/>
      <point x="80" y="723"/>
      <point x="85" y="806" type="curve"/>
    </contour>
  </outline>
</glyph>
<glyph name="uni055C" format="2">
  <advance width="138"/>
  <unicode hex="055C"/>
  <note>
uni055C
</note>
  <outline>
    <contour>
      <point x="18" y="600" type="curve"/>
      <point x="43" y="600" type="line"/>
      <point x="43" y="615" type="line" smooth="yes"/>
      <point x="43" y="645"/>
      <point x="46" y="667"/>
      <point x="75" y="694" type="curve" smooth="yes"/>
      <point x="110" y="726"/>
      <point x="120" y="743"/>
      <point x="120" y="817" type="curve"/>
      <point x="95" y="817" type="line"/>
      <point x="95" y="799" type="line" smooth="yes"/>
      <point x="95" y="759"/>
      <point x="87" y="738"/>
      <point x="60" y="713" type="curve" smooth="yes"/>
      <point x="29" y="685"/>
      <point x="18" y="658"/>
    </contour>
  </outline>
</glyph>
<glyph name="uni055D" format="2">
  <advance width="115"/>
  <unicode hex="055D"/>
  <note>
uni055D
</note>
  <outline>
    <contour>
      <point x="33" y="814" type="line"/>
      <point x="30" y="806" type="line"/>
      <point x="35" y="723"/>
      <point x="50" y="633"/>
      <point x="70" y="569" type="curve"/>
      <point x="91" y="569" type="line"/>
      <point x="72" y="642"/>
      <point x="58" y="734"/>
      <point x="55" y="814" type="curve"/>
    </contour>
  </outline>
</glyph>
<glyph name="uni055E" format="2">
  <advance width="267"/>
  <unicode hex="055E"/>
  <note>
uni055E
</note>
  <outline>
    <contour>
      <point x="42" y="686" type="curve"/>
      <point x="66" y="686" type="line"/>
      <point x="68" y="757"/>
      <point x="101" y="800"/>
      <point x="154" y="800" type="curve" smooth="yes"/>
      <point x="185" y="800"/>
      <point x="203" y="781"/>
      <point x="203" y="750" type="curve" smooth="yes"/>
      <point x="203" y="722"/>
      <point x="188" y="708"/>
      <point x="146" y="707" type="curve"/>
      <point x="146" y="682" type="line"/>
      <point x="201" y="684"/>
      <point x="229" y="705"/>
      <point x="229" y="752" type="curve" smooth="yes"/>
      <point x="229" y="797"/>
      <point x="199" y="825"/>
      <point x="155" y="825" type="curve" smooth="yes"/>
      <point x="94" y="825"/>
      <point x="45" y="775"/>
    </contour>
  </outline>
</glyph>
<glyph name="uni055F" format="2">
  <advance width="258"/>
  <unicode hex="055F"/>
  <note>
uni055F
</note>
  <outline>
    <contour>
      <point x="107" y="612" type="curve" smooth="yes"/>
      <point x="238" y="612" type="line"/>
      <point x="238" y="637" type="line"/>
      <point x="112" y="637" type="line" smooth="yes"/>
      <point x="79" y="637"/>
      <point x="62" y="661"/>
      <point x="62" y="707" type="curve" smooth="yes"/>
      <point x="62" y="748"/>
      <point x="80" y="771"/>
      <point x="110" y="771" type="curve" smooth="yes"/>
      <point x="120" y="771"/>
      <point x="132" y="767"/>
      <point x="143" y="760" type="curve"/>
      <point x="154" y="782" type="line"/>
      <point x="138" y="791"/>
      <point x="121" y="796"/>
      <point x="107" y="796" type="curve" smooth="yes"/>
      <point x="65" y="796"/>
      <point x="36" y="761"/>
      <point x="36" y="707" type="curve" smooth="yes"/>
      <point x="36" y="647"/>
      <point x="63" y="612"/>
    </contour>
  </outline>
</glyph>
<glyph name="uni0560" format="2">
  <advance width="608"/>
  <unicode hex="0560"/>
  <note>
uni0561
</note>
  <outline>
    <contour>
      <point x="429" y="492" type="curve" smooth="yes"/>
      <point x="363" y="492"/>
      <point x="333" y="446"/>
      <point x="313" y="386" type="curve"/>
      <point x="310" y="386" type="line"/>
      <point x="303" y="441"/>
      <point x="277" y="492"/>
      <point x="209" y="492" type="curve" smooth="yes"/>
      <point x="134" y="492"/>
      <point x="110" y="429"/>
      <point x="95" y="383" type="curve"/>
      <point x="92" y="383" type="line"/>
      <point x="92" y="482" type="line"/>
      <point x="71" y="482" type="line"/>
      <point x="71" y="0" type="line"/>
      <point x="97" y="0" type="line"/>
      <point x="97" y="292" type="line" smooth="yes"/>
      <point x="97" y="377"/>
      <point x="132" y="468"/>
      <point x="209" y="468" type="curve" smooth="yes"/>
      <point x="256" y="468"/>
      <point x="293" y="434"/>
      <point x="293" y="310" type="curve" smooth="yes"/>
      <point x="293" y="0" type="line"/>
      <point x="319" y="0" type="line"/>
      <point x="319" y="296" type="line" smooth="yes"/>
      <point x="319" y="399"/>
      <point x="363" y="468"/>
      <point x="428" y="468" type="curve" smooth="yes"/>
      <point x="476" y="468"/>
      <point x="513" y="430"/>
      <point x="513" y="327" type="curve" smooth="yes"/>
      <point x="513" y="0" type="line"/>
      <point x="539" y="0" type="line"/>
      <point x="539" y="329" type="line" smooth="yes"/>
      <point x="539" y="442"/>
      <point x="497" y="492"/>
    </contour>
  </outline>
</glyph>
<glyph name="uni0561" format="2">
  <advance width="608"/>
  <unicode hex="0561"/>
  <note>
uni0561
</note>
  <anchor x="304" y="492" name="top"/>
  <outline>
    <contour>
      <point x="179" y="-10" type="curve" smooth="yes"/>
      <point x="245" y="-10"/>
      <point x="275" y="36"/>
      <point x="295" y="96" type="curve"/>
      <point x="298" y="96" type="line"/>
      <point x="305" y="41"/>
      <point x="331" y="-10"/>
      <point x="399" y="-10" type="curve" smooth="yes"/>
      <point x="474" y="-10"/>
      <point x="498" y="53"/>
      <point x="513" y="99" type="curve"/>
      <point x="516" y="99" type="line"/>
      <point x="516" y="0" type="line"/>
      <point x="537" y="0" type="line"/>
      <point x="537" y="482" type="line"/>
      <point x="511" y="482" type="line"/>
      <point x="511" y="190" type="line" smooth="yes"/>
      <point x="511" y="105"/>
      <point x="476" y="14"/>
      <point x="399" y="14" type="curve" smooth="yes"/>
      <point x="352" y="14"/>
      <point x="315" y="48"/>
      <point x="315" y="172" type="curve" smooth="yes"/>
      <point x="315" y="482" type="line"/>
      <point x="289" y="482" type="line"/>
      <point x="289" y="186" type="line" smooth="yes"/>
      <point x="289" y="83"/>
      <point x="245" y="14"/>
      <point x="180" y="14" type="curve" smooth="yes"/>
      <point x="132" y="14"/>
      <point x="95" y="52"/>
      <point x="95" y="155" type="curve" smooth="yes"/>
      <point x="95" y="482" type="line"/>
      <point x="69" y="482" type="line"/>
      <point x="69" y="153" type="line" smooth="yes"/>
      <point x="69" y="40"/>
      <point x="111" y="-10"/>
    </contour>
  </outline>
</glyph>
<glyph name="uni0565" format="2">
  <advance width="370"/>
  <unicode hex="0565"/>
  <note>
uni0565
</note>
  <outline>
    <contour>
      <point x="299" y="332" type="line"/>
      <point x="273" y="332" type="line"/>
      <point x="273" y="226" type="line" smooth="yes"/>
      <point x="273" y="93"/>
      <point x="237" y="14"/>
      <point x="173" y="14" type="curve" smooth="yes"/>
      <point x="121" y="14"/>
      <point x="95" y="46"/>
      <point x="95" y="155" type="curve" smooth="yes"/>
      <point x="95" y="760" type="line"/>
      <point x="69" y="760" type="line"/>
      <point x="69" y="156" type="line" smooth="yes"/>
      <point x="69" y="25"/>
      <point x="106" y="-10"/>
      <point x="169" y="-10" type="curve" smooth="yes"/>
      <point x="222" y="-10"/>
      <point x="257" y="22"/>
      <point x="271" y="87" type="curve"/>
      <point x="275" y="87" type="line"/>
      <point x="278" y="0" type="line"/>
      <point x="299" y="0" type="line"/>
    </contour>
    <contour>
      <point x="84" y="482" type="line"/>
      <point x="84" y="457" type="line"/>
      <point x="303" y="457" type="line"/>
      <point x="303" y="482" type="line"/>
    </contour>
  </outline>
</glyph>
<glyph name="uni0566" format="2">
  <advance width="393"/>
  <unicode hex="0566"/>
  <note>
uni0566
</note>
  <outline>
    <contour>
      <point x="296" y="-232" type="line"/>
      <point x="402" y="-232" type="line"/>
      <point x="402" y="-207" type="line"/>
      <point x="322" y="-207" type="line"/>
      <point x="322" y="482" type="line"/>
      <point x="302" y="482" type="line"/>
      <point x="299" y="392" type="line"/>
      <point x="297" y="392" type="line"/>
      <point x="286" y="453"/>
      <point x="250" y="492"/>
      <point x="186" y="492" type="curve" smooth="yes"/>
      <point x="94" y="492"/>
      <point x="46" y="390"/>
      <point x="46" y="238" type="curve" smooth="yes"/>
      <point x="46" y="81"/>
      <point x="94" y="-10"/>
      <point x="182" y="-10" type="curve" smooth="yes"/>
      <point x="244" y="-10"/>
      <point x="279" y="30"/>
      <point x="296" y="100" type="curve"/>
      <point x="299" y="100" type="line"/>
      <point x="297" y="71"/>
      <point x="296" y="35"/>
      <point x="296" y="20" type="curve" smooth="yes"/>
    </contour>
    <contour>
      <point x="183" y="15" type="curve" smooth="yes"/>
      <point x="120" y="15"/>
      <point x="72" y="90"/>
      <point x="72" y="238" type="curve" smooth="yes"/>
      <point x="72" y="372"/>
      <point x="112" y="466"/>
      <point x="188" y="466" type="curve" smooth="yes"/>
      <point x="254" y="466"/>
      <point x="296" y="396"/>
      <point x="296" y="292" type="curve" smooth="yes"/>
      <point x="296" y="208" type="line" smooth="yes"/>
      <point x="296" y="94"/>
      <point x="250" y="15"/>
    </contour>
  </outline>
</glyph>
<glyph name="uni0567" format="2">
  <advance width="271"/>
  <unicode hex="0567"/>
  <note>
uni0567
</note>
  <outline>
    <contour>
      <point x="71" y="0" type="line"/>
      <point x="97" y="0" type="line"/>
      <point x="97" y="760" type="line"/>
      <point x="71" y="760" type="line"/>
    </contour>
    <contour>
      <point x="86" y="482" type="line"/>
      <point x="86" y="457" type="line"/>
      <point x="245" y="457" type="line"/>
      <point x="245" y="482" type="line"/>
    </contour>
    <contour>
      <point x="71" y="0" type="line"/>
      <point x="150" y="0" type="line" smooth="yes"/>
      <point x="198" y="0"/>
      <point x="214" y="-13"/>
      <point x="214" y="-59" type="curve" smooth="yes"/>
      <point x="214" y="-95" type="line"/>
      <point x="240" y="-95" type="line"/>
      <point x="240" y="-59" type="line" smooth="yes"/>
      <point x="240" y="2"/>
      <point x="214" y="25"/>
      <point x="154" y="25" type="curve" smooth="yes"/>
      <point x="71" y="25" type="line"/>
    </contour>
  </outline>
</glyph>
<glyph name="uni0568" format="2">
  <advance width="370"/>
  <unicode hex="0568"/>
  <note>
uni0568
</note>
  <outline>
    <contour>
      <point x="72" y="-232" type="line"/>
      <point x="98" y="-232" type="line"/>
      <point x="98" y="256" type="line" smooth="yes"/>
      <point x="98" y="389"/>
      <point x="134" y="468"/>
      <point x="198" y="468" type="curve" smooth="yes"/>
      <point x="250" y="468"/>
      <point x="276" y="436"/>
      <point x="276" y="327" type="curve" smooth="yes"/>
      <point x="276" y="0" type="line"/>
      <point x="302" y="0" type="line"/>
      <point x="302" y="326" type="line" smooth="yes"/>
      <point x="302" y="457"/>
      <point x="265" y="492"/>
      <point x="202" y="492" type="curve" smooth="yes"/>
      <point x="149" y="492"/>
      <point x="114" y="460"/>
      <point x="100" y="395" type="curve"/>
      <point x="96" y="395" type="line"/>
      <point x="93" y="482" type="line"/>
      <point x="72" y="482" type="line"/>
    </contour>
    <contour>
      <point x="86" y="-207" type="line"/>
      <point x="86" y="-232" type="line"/>
      <point x="306" y="-232" type="line"/>
      <point x="306" y="-207" type="line"/>
    </contour>
  </outline>
</glyph>
<glyph name="uni0569" format="2">
  <advance width="395"/>
  <unicode hex="0569"/>
  <note>
uni0569
</note>
  <outline>
    <contour>
      <point x="76" y="-232" type="line"/>
      <point x="102" y="-232" type="line"/>
      <point x="102" y="292" type="line" smooth="yes"/>
      <point x="102" y="396"/>
      <point x="143" y="467"/>
      <point x="214" y="467" type="curve"/>
      <point x="218" y="492" type="line"/>
      <point x="154" y="492"/>
      <point x="118" y="453"/>
      <point x="101" y="392" type="curve"/>
      <point x="99" y="392" type="line"/>
      <point x="96" y="482" type="line"/>
      <point x="76" y="482" type="line"/>
    </contour>
    <contour>
      <point x="392" y="204" type="curve"/>
      <point x="399" y="229" type="line"/>
      <point x="362" y="251"/>
      <point x="309" y="263"/>
      <point x="268" y="263" type="curve" smooth="yes"/>
      <point x="203" y="263"/>
      <point x="169" y="215"/>
      <point x="169" y="124" type="curve" smooth="yes"/>
      <point x="169" y="35"/>
      <point x="197" y="-10"/>
      <point x="254" y="-10" type="curve" smooth="yes"/>
      <point x="315" y="-10"/>
      <point x="351" y="43"/>
      <point x="351" y="248" type="curve" smooth="yes"/>
      <point x="351" y="417"/>
      <point x="305" y="492"/>
      <point x="218" y="492" type="curve"/>
      <point x="214" y="467" type="line"/>
      <point x="292" y="467"/>
      <point x="324" y="402"/>
      <point x="324" y="249" type="curve" smooth="yes"/>
      <point x="324" y="73"/>
      <point x="300" y="15"/>
      <point x="254" y="15" type="curve" smooth="yes"/>
      <point x="213" y="15"/>
      <point x="195" y="50"/>
      <point x="195" y="125" type="curve" smooth="yes"/>
      <point x="195" y="196"/>
      <point x="217" y="238"/>
      <point x="268" y="238" type="curve" smooth="yes"/>
      <point x="310" y="238"/>
      <point x="361" y="225"/>
    </contour>
  </outline>
</glyph>
<glyph name="uni056A" format="2">
  <advance width="365"/>
  <unicode hex="056A"/>
  <note>
uni056A
</note>
  <outline>
    <contour>
      <point x="185" y="467" type="curve" smooth="yes"/>
      <point x="238" y="467"/>
      <point x="300" y="453"/>
      <point x="346" y="434" type="curve"/>
      <point x="353" y="459" type="line"/>
      <point x="294" y="482"/>
      <point x="234" y="492"/>
      <point x="187" y="492" type="curve" smooth="yes"/>
      <point x="88" y="492"/>
      <point x="46" y="403"/>
      <point x="46" y="238" type="curve" smooth="yes"/>
      <point x="46" y="62"/>
      <point x="88" y="-10"/>
      <point x="171" y="-10" type="curve" smooth="yes"/>
      <point x="254" y="-10"/>
      <point x="296" y="60"/>
      <point x="296" y="242" type="curve" smooth="yes"/>
      <point x="296" y="760" type="line"/>
      <point x="270" y="760" type="line"/>
      <point x="270" y="245" type="line" smooth="yes"/>
      <point x="270" y="77"/>
      <point x="237" y="15"/>
      <point x="171" y="15" type="curve" smooth="yes"/>
      <point x="105" y="15"/>
      <point x="72" y="83"/>
      <point x="72" y="236" type="curve" smooth="yes"/>
      <point x="72" y="385"/>
      <point x="104" y="467"/>
    </contour>
  </outline>
</glyph>
<glyph name="uni056B" format="2">
  <advance width="370"/>
  <unicode hex="056B"/>
  <note>
uni056B
</note>
  <outline>
    <contour>
      <point x="97" y="760" type="line"/>
      <point x="71" y="760" type="line"/>
      <point x="71" y="-232" type="line"/>
      <point x="97" y="-232" type="line"/>
      <point x="97" y="256" type="line" smooth="yes"/>
      <point x="97" y="389"/>
      <point x="133" y="468"/>
      <point x="197" y="468" type="curve" smooth="yes"/>
      <point x="249" y="468"/>
      <point x="275" y="436"/>
      <point x="275" y="327" type="curve" smooth="yes"/>
      <point x="275" y="0" type="line"/>
      <point x="301" y="0" type="line"/>
      <point x="301" y="326" type="line" smooth="yes"/>
      <point x="301" y="457"/>
      <point x="264" y="492"/>
      <point x="201" y="492" type="curve" smooth="yes"/>
      <point x="148" y="492"/>
      <point x="113" y="460"/>
      <point x="99" y="395" type="curve"/>
      <point x="95" y="395" type="line"/>
      <point x="96" y="424"/>
      <point x="97" y="453"/>
      <point x="97" y="482" type="curve" smooth="yes"/>
    </contour>
  </outline>
</glyph>
<glyph name="uni056C" format="2">
  <advance width="168"/>
  <unicode hex="056C"/>
  <note>
uni056C
</note>
  <outline>
    <contour>
      <point x="71" y="-232" type="line"/>
      <point x="168" y="-232" type="line"/>
      <point x="168" y="-207" type="line"/>
      <point x="97" y="-207" type="line"/>
      <point x="97" y="482" type="line"/>
      <point x="71" y="482" type="line"/>
    </contour>
  </outline>
</glyph>
<glyph name="uni056D" format="2">
  <advance width="576"/>
  <unicode hex="056D"/>
  <note>
uni056D
</note>
  <outline>
    <contour>
      <point x="479" y="482" type="line"/>
      <point x="479" y="226" type="line" smooth="yes"/>
      <point x="479" y="93"/>
      <point x="443" y="14"/>
      <point x="379" y="14" type="curve" smooth="yes"/>
      <point x="327" y="14"/>
      <point x="301" y="46"/>
      <point x="301" y="155" type="curve" smooth="yes"/>
      <point x="301" y="326" type="line" smooth="yes"/>
      <point x="301" y="457"/>
      <point x="264" y="492"/>
      <point x="201" y="492" type="curve" smooth="yes"/>
      <point x="148" y="492"/>
      <point x="113" y="460"/>
      <point x="99" y="395" type="curve"/>
      <point x="95" y="395" type="line"/>
      <point x="96" y="424"/>
      <point x="97" y="453"/>
      <point x="97" y="482" type="curve" smooth="yes"/>
      <point x="97" y="760" type="line"/>
      <point x="71" y="760" type="line"/>
      <point x="71" y="-232" type="line"/>
      <point x="97" y="-232" type="line"/>
      <point x="97" y="256" type="line" smooth="yes"/>
      <point x="97" y="389"/>
      <point x="133" y="468"/>
      <point x="197" y="468" type="curve" smooth="yes"/>
      <point x="249" y="468"/>
      <point x="275" y="436"/>
      <point x="275" y="327" type="curve" smooth="yes"/>
      <point x="275" y="156" type="line" smooth="yes"/>
      <point x="275" y="25"/>
      <point x="312" y="-10"/>
      <point x="375" y="-10" type="curve" smooth="yes"/>
      <point x="428" y="-10"/>
      <point x="463" y="22"/>
      <point x="477" y="87" type="curve"/>
      <point x="481" y="87" type="line"/>
      <point x="484" y="0" type="line"/>
      <point x="505" y="0" type="line"/>
      <point x="505" y="482" type="line"/>
    </contour>
  </outline>
</glyph>
<glyph name="uni056E" format="2">
  <advance width="342"/>
  <unicode hex="056E"/>
  <note>
uni056E
</note>
  <outline>
    <contour>
      <point x="200" y="457" type="curve" smooth="yes"/>
      <point x="330" y="457" type="line"/>
      <point x="330" y="482" type="line"/>
      <point x="199" y="482" type="line" smooth="yes"/>
      <point x="88" y="482"/>
      <point x="46" y="398"/>
      <point x="46" y="238" type="curve" smooth="yes"/>
      <point x="46" y="62"/>
      <point x="88" y="-10"/>
      <point x="171" y="-10" type="curve" smooth="yes"/>
      <point x="254" y="-10"/>
      <point x="296" y="60"/>
      <point x="296" y="242" type="curve" smooth="yes"/>
      <point x="296" y="408"/>
      <point x="234" y="562"/>
      <point x="120" y="711" type="curve"/>
      <point x="99" y="697" type="line"/>
      <point x="203" y="560"/>
      <point x="270" y="409"/>
      <point x="270" y="245" type="curve" smooth="yes"/>
      <point x="270" y="77"/>
      <point x="237" y="15"/>
      <point x="171" y="15" type="curve" smooth="yes"/>
      <point x="105" y="15"/>
      <point x="72" y="83"/>
      <point x="72" y="236" type="curve" smooth="yes"/>
      <point x="72" y="380"/>
      <point x="109" y="457"/>
    </contour>
    <contour>
      <point x="99" y="697" type="line"/>
      <point x="117" y="680" type="line"/>
      <point x="185" y="747" type="line"/>
      <point x="168" y="765" type="line"/>
    </contour>
  </outline>
</glyph>
<glyph name="uni0570" format="2">
  <advance width="331"/>
  <unicode hex="0570"/>
  <note>
uni0570
</note>
  <outline>
    <contour>
      <point x="246" y="0" type="line"/>
      <point x="272" y="0" type="line"/>
      <point x="272" y="196" type="line" smooth="yes"/>
      <point x="272" y="327"/>
      <point x="235" y="362"/>
      <point x="172" y="362" type="curve" smooth="yes"/>
      <point x="122" y="362"/>
      <point x="99" y="335"/>
      <point x="80" y="291" type="curve"/>
      <point x="76" y="291" type="line"/>
      <point x="79" y="550"/>
      <point x="128" y="740"/>
      <point x="216" y="740" type="curve" smooth="yes"/>
      <point x="238" y="740"/>
      <point x="263" y="730"/>
      <point x="286" y="709" type="curve"/>
      <point x="303" y="729" type="line"/>
      <point x="276" y="754"/>
      <point x="246" y="765"/>
      <point x="216" y="765" type="curve" smooth="yes"/>
      <point x="106" y="765"/>
      <point x="50" y="557"/>
      <point x="50" y="267" type="curve" smooth="yes"/>
      <point x="50" y="218" type="line"/>
      <point x="75" y="218" type="line"/>
      <point x="89" y="295"/>
      <point x="121" y="338"/>
      <point x="168" y="338" type="curve" smooth="yes"/>
      <point x="220" y="338"/>
      <point x="246" y="306"/>
      <point x="246" y="197" type="curve" smooth="yes"/>
    </contour>
  </outline>
</glyph>
<glyph name="uni0571" format="2">
  <advance width="356"/>
  <unicode hex="0571"/>
  <note>
uni0571
</note>
  <outline>
    <contour>
      <point x="125" y="760" type="curve"/>
      <point x="99" y="760" type="line"/>
      <point x="99" y="673"/>
      <point x="116" y="656"/>
      <point x="209" y="636" type="curve" smooth="yes"/>
      <point x="274" y="622"/>
      <point x="285" y="610"/>
      <point x="285" y="593" type="curve" smooth="yes"/>
      <point x="285" y="575"/>
      <point x="268" y="551"/>
      <point x="194" y="472" type="curve" smooth="yes"/>
      <point x="91" y="362"/>
      <point x="32" y="277"/>
      <point x="32" y="163" type="curve" smooth="yes"/>
      <point x="32" y="39"/>
      <point x="93" y="-10"/>
      <point x="161" y="-10" type="curve" smooth="yes"/>
      <point x="204" y="-10"/>
      <point x="237" y="8"/>
      <point x="271" y="50" type="curve"/>
      <point x="275" y="50" type="line"/>
      <point x="275" y="78" type="line"/>
      <point x="239" y="37"/>
      <point x="197" y="15"/>
      <point x="165" y="15" type="curve" smooth="yes"/>
      <point x="108" y="15"/>
      <point x="58" y="56"/>
      <point x="58" y="162" type="curve" smooth="yes"/>
      <point x="58" y="271"/>
      <point x="119" y="355"/>
      <point x="210" y="452" type="curve" smooth="yes"/>
      <point x="295" y="543"/>
      <point x="312" y="566"/>
      <point x="312" y="594" type="curve" smooth="yes"/>
      <point x="312" y="631"/>
      <point x="290" y="643"/>
      <point x="218" y="659" type="curve" smooth="yes"/>
      <point x="132" y="678"/>
      <point x="125" y="691"/>
    </contour>
    <contour>
      <point x="222" y="494" type="line"/>
      <point x="280" y="0" type="line"/>
      <point x="305" y="3" type="line"/>
      <point x="248" y="497" type="line"/>
    </contour>
    <contour>
      <point x="280" y="0" type="line"/>
      <point x="344" y="0" type="line"/>
      <point x="344" y="25" type="line"/>
      <point x="301" y="25" type="line"/>
    </contour>
  </outline>
</glyph>
<glyph name="uni0573" format="2">
  <advance width="360"/>
  <unicode hex="0573"/>
  <note>
uni0573
</note>
  <outline>
    <contour>
      <point x="311" y="227" type="line" smooth="yes"/>
      <point x="311" y="414"/>
      <point x="199" y="482"/>
      <point x="24" y="502" type="curve"/>
      <point x="24" y="477" type="line"/>
      <point x="180" y="460"/>
      <point x="285" y="400"/>
      <point x="285" y="230" type="curve" smooth="yes"/>
      <point x="285" y="101"/>
      <point x="239" y="14"/>
      <point x="175" y="14" type="curve" smooth="yes"/>
      <point x="100" y="14"/>
      <point x="88" y="58"/>
      <point x="88" y="211" type="curve" smooth="yes"/>
      <point x="88" y="551"/>
      <point x="134" y="740"/>
      <point x="228" y="740" type="curve" smooth="yes"/>
      <point x="250" y="740"/>
      <point x="275" y="730"/>
      <point x="298" y="709" type="curve"/>
      <point x="315" y="729" type="line"/>
      <point x="288" y="754"/>
      <point x="258" y="765"/>
      <point x="228" y="765" type="curve" smooth="yes"/>
      <point x="119" y="765"/>
      <point x="62" y="577"/>
      <point x="62" y="211" type="curve" smooth="yes"/>
      <point x="62" y="45"/>
      <point x="79" y="-10"/>
      <point x="171" y="-10" type="curve" smooth="yes"/>
      <point x="224" y="-10"/>
      <point x="266" y="27"/>
      <point x="283" y="87" type="curve"/>
      <point x="287" y="87" type="line"/>
      <point x="290" y="0" type="line"/>
      <point x="311" y="0" type="line"/>
    </contour>
  </outline>
</glyph>
<glyph name="uni0574" format="2">
  <advance width="370"/>
  <unicode hex="0574"/>
  <note>
uni0574
</note>
  <outline>
    <contour>
      <point x="299" y="501" type="line" smooth="yes"/>
      <point x="299" y="538"/>
      <point x="289" y="560"/>
      <point x="268" y="600" type="curve" smooth="yes"/>
      <point x="251" y="632"/>
      <point x="243" y="653"/>
      <point x="243" y="679" type="curve" smooth="yes"/>
      <point x="243" y="722"/>
      <point x="254" y="741"/>
      <point x="284" y="741" type="curve" smooth="yes"/>
      <point x="314" y="741"/>
      <point x="325" y="722"/>
      <point x="325" y="676" type="curve"/>
      <point x="350" y="676" type="line"/>
      <point x="350" y="735"/>
      <point x="327" y="766"/>
      <point x="284" y="766" type="curve" smooth="yes"/>
      <point x="248" y="766"/>
      <point x="217" y="743"/>
      <point x="217" y="678" type="curve" smooth="yes"/>
      <point x="217" y="646"/>
      <point x="228" y="621"/>
      <point x="246" y="589" type="curve" smooth="yes"/>
      <point x="264" y="556"/>
      <point x="273" y="533"/>
      <point x="273" y="502" type="curve" smooth="yes"/>
      <point x="273" y="226" type="line" smooth="yes"/>
      <point x="273" y="93"/>
      <point x="237" y="14"/>
      <point x="173" y="14" type="curve" smooth="yes"/>
      <point x="121" y="14"/>
      <point x="95" y="46"/>
      <point x="95" y="155" type="curve" smooth="yes"/>
      <point x="95" y="482" type="line"/>
      <point x="69" y="482" type="line"/>
      <point x="69" y="156" type="line" smooth="yes"/>
      <point x="69" y="25"/>
      <point x="106" y="-10"/>
      <point x="169" y="-10" type="curve" smooth="yes"/>
      <point x="222" y="-10"/>
      <point x="257" y="22"/>
      <point x="271" y="87" type="curve"/>
      <point x="275" y="87" type="line"/>
      <point x="278" y="0" type="line"/>
      <point x="299" y="0" type="line"/>
    </contour>
  </outline>
</glyph>
<glyph name="uni0575" format="2">
  <advance width="168"/>
  <unicode hex="0575"/>
  <note>
uni0575
</note>
  <outline>
    <contour>
      <point x="71" y="99" type="line"/>
      <point x="97" y="99" type="line"/>
      <point x="97" y="482" type="line"/>
      <point x="71" y="482" type="line"/>
    </contour>
    <contour>
      <point x="71" y="99" type="line"/>
      <point x="71" y="44"/>
      <point x="76" y="17"/>
      <point x="83" y="-20" type="curve" smooth="yes"/>
      <point x="89" y="-54"/>
      <point x="94" y="-98"/>
      <point x="94" y="-131" type="curve" smooth="yes"/>
      <point x="94" y="-182"/>
      <point x="78" y="-207"/>
      <point x="49" y="-207" type="curve" smooth="yes"/>
      <point x="46" y="-207" type="line"/>
      <point x="46" y="-232" type="line"/>
      <point x="52" y="-232" type="line" smooth="yes"/>
      <point x="93" y="-232"/>
      <point x="121" y="-192"/>
      <point x="121" y="-131" type="curve" smooth="yes"/>
      <point x="121" y="-91"/>
      <point x="114" y="-43"/>
      <point x="108" y="-14" type="curve" smooth="yes"/>
      <point x="100" y="24"/>
      <point x="97" y="52"/>
      <point x="97" y="99" type="curve"/>
    </contour>
  </outline>
</glyph>
<glyph name="uni0576" format="2">
  <advance width="370"/>
  <unicode hex="0576"/>
  <note>
uni0576
</note>
  <outline>
    <contour>
      <point x="123" y="517" type="line"/>
      <point x="72" y="405"/>
      <point x="48" y="317"/>
      <point x="48" y="190" type="curve" smooth="yes"/>
      <point x="48" y="74"/>
      <point x="81" y="-10"/>
      <point x="160" y="-10" type="curve"/>
      <point x="222" y="-10"/>
      <point x="257" y="22"/>
      <point x="271" y="87" type="curve"/>
      <point x="275" y="87" type="line"/>
      <point x="278" y="0" type="line"/>
      <point x="299" y="0" type="line"/>
      <point x="299" y="482" type="line"/>
      <point x="273" y="482" type="line"/>
      <point x="273" y="226" type="line" smooth="yes"/>
      <point x="273" y="93"/>
      <point x="237" y="14"/>
      <point x="160" y="14" type="curve"/>
      <point x="102" y="14"/>
      <point x="74" y="98"/>
      <point x="74" y="190" type="curve" smooth="yes"/>
      <point x="74" y="308"/>
      <point x="99" y="405"/>
      <point x="147" y="517" type="curve"/>
      <point x="147" y="527" type="line"/>
    </contour>
    <contour>
      <point x="147" y="527" type="line"/>
      <point x="97" y="589" type="line" smooth="yes"/>
      <point x="80" y="610"/>
      <point x="74" y="624"/>
      <point x="74" y="640" type="curve" smooth="yes"/>
      <point x="74" y="653"/>
      <point x="81" y="670"/>
      <point x="91" y="688" type="curve" smooth="yes"/>
      <point x="132" y="759" type="line"/>
      <point x="109" y="771" type="line"/>
      <point x="68" y="700" type="line" smooth="yes"/>
      <point x="54" y="675"/>
      <point x="48" y="658"/>
      <point x="48" y="640" type="curve" smooth="yes"/>
      <point x="48" y="619"/>
      <point x="55" y="601"/>
      <point x="75" y="576" type="curve" smooth="yes"/>
      <point x="123" y="517" type="line"/>
    </contour>
  </outline>
</glyph>
<glyph name="uni0577" format="2">
  <advance width="273"/>
  <unicode hex="0577"/>
  <note>
uni0577
</note>
  <outline>
    <contour>
      <point x="224" y="-232" type="line"/>
      <point x="224" y="-208" type="line"/>
      <point x="61" y="-208" type="line" smooth="yes"/>
      <point x="40" y="-208"/>
      <point x="34" y="-204"/>
      <point x="34" y="-194" type="curve" smooth="yes"/>
      <point x="34" y="-184"/>
      <point x="39" y="-174"/>
      <point x="49" y="-155" type="curve" smooth="yes"/>
      <point x="134" y="13" type="line" smooth="yes"/>
      <point x="198" y="139"/>
      <point x="237" y="229"/>
      <point x="237" y="331" type="curve" smooth="yes"/>
      <point x="237" y="429"/>
      <point x="191" y="492"/>
      <point x="113" y="492" type="curve" smooth="yes"/>
      <point x="77" y="492"/>
      <point x="35" y="476"/>
      <point x="8" y="452" type="curve"/>
      <point x="19" y="431" type="line"/>
      <point x="44" y="453"/>
      <point x="80" y="467"/>
      <point x="111" y="467" type="curve" smooth="yes"/>
      <point x="171" y="467"/>
      <point x="210" y="420"/>
      <point x="210" y="331" type="curve" smooth="yes"/>
      <point x="210" y="239"/>
      <point x="178" y="152"/>
      <point x="114" y="27" type="curve" smooth="yes"/>
      <point x="27" y="-144" type="line" smooth="yes"/>
      <point x="16" y="-166"/>
      <point x="8" y="-182"/>
      <point x="8" y="-197" type="curve" smooth="yes"/>
      <point x="8" y="-218"/>
      <point x="24" y="-232"/>
      <point x="62" y="-232" type="curve" smooth="yes"/>
    </contour>
  </outline>
</glyph>
<glyph name="uni0579" format="2">
  <advance width="226"/>
  <unicode hex="0579"/>
  <note>
uni0579
</note>
  <outline>
    <contour>
      <point x="-12" y="-197" type="curve" smooth="yes"/>
      <point x="-12" y="-218"/>
      <point x="4" y="-232"/>
      <point x="42" y="-232" type="curve" smooth="yes"/>
      <point x="209" y="-232" type="line"/>
      <point x="209" y="-208" type="line"/>
      <point x="41" y="-208" type="line" smooth="yes"/>
      <point x="20" y="-208"/>
      <point x="14" y="-204"/>
      <point x="14" y="-194" type="curve" smooth="yes"/>
      <point x="14" y="-183"/>
      <point x="17" y="-173"/>
      <point x="24" y="-153" type="curve" smooth="yes"/>
      <point x="168" y="274" type="line"/>
      <point x="145" y="283" type="line"/>
      <point x="1" y="-144" type="line" smooth="yes"/>
      <point x="-7" y="-169"/>
      <point x="-12" y="-181"/>
    </contour>
    <contour>
      <point x="168" y="274" type="line"/>
      <point x="118" y="336" type="line" smooth="yes"/>
      <point x="101" y="357"/>
      <point x="95" y="373"/>
      <point x="95" y="387" type="curve" smooth="yes"/>
      <point x="95" y="409"/>
      <point x="101" y="425"/>
      <point x="138" y="482" type="curve"/>
      <point x="109" y="482" type="line"/>
      <point x="78" y="432"/>
      <point x="69" y="417"/>
      <point x="69" y="387" type="curve" smooth="yes"/>
      <point x="69" y="366"/>
      <point x="76" y="348"/>
      <point x="96" y="323" type="curve" smooth="yes"/>
      <point x="144" y="264" type="line"/>
    </contour>
  </outline>
</glyph>
<glyph name="uni057B" format="2">
  <advance width="297"/>
  <unicode hex="057B"/>
  <note>
uni057B
</note>
  <outline>
    <contour>
      <point x="85" y="-208" type="line" smooth="yes"/>
      <point x="64" y="-208"/>
      <point x="58" y="-204"/>
      <point x="58" y="-194" type="curve" smooth="yes"/>
      <point x="58" y="-184"/>
      <point x="63" y="-174"/>
      <point x="73" y="-155" type="curve" smooth="yes"/>
      <point x="183" y="63" type="line" smooth="yes"/>
      <point x="233" y="161"/>
      <point x="271" y="238"/>
      <point x="271" y="331" type="curve" smooth="yes"/>
      <point x="271" y="429"/>
      <point x="227" y="492"/>
      <point x="149" y="492" type="curve" smooth="yes"/>
      <point x="71" y="492"/>
      <point x="26" y="429"/>
      <point x="26" y="331" type="curve" smooth="yes"/>
      <point x="26" y="261"/>
      <point x="42" y="213"/>
      <point x="67" y="168" type="curve" smooth="yes"/>
      <point x="109" y="94"/>
      <point x="128" y="51"/>
      <point x="133" y="6" type="curve"/>
      <point x="153" y="17" type="line"/>
      <point x="149" y="59"/>
      <point x="138" y="92"/>
      <point x="92" y="177" type="curve" smooth="yes"/>
      <point x="68" y="221"/>
      <point x="53" y="266"/>
      <point x="53" y="331" type="curve" smooth="yes"/>
      <point x="53" y="420"/>
      <point x="89" y="467"/>
      <point x="149" y="467" type="curve" smooth="yes"/>
      <point x="209" y="467"/>
      <point x="244" y="420"/>
      <point x="244" y="331" type="curve" smooth="yes"/>
      <point x="244" y="239"/>
      <point x="202" y="152"/>
      <point x="138" y="27" type="curve" smooth="yes"/>
      <point x="51" y="-144" type="line" smooth="yes"/>
      <point x="40" y="-166"/>
      <point x="32" y="-182"/>
      <point x="32" y="-197" type="curve" smooth="yes"/>
      <point x="32" y="-218"/>
      <point x="48" y="-232"/>
      <point x="86" y="-232" type="curve" smooth="yes"/>
      <point x="268" y="-232" type="line"/>
      <point x="268" y="-208" type="line"/>
    </contour>
  </outline>
</glyph>
<glyph name="uni057C" format="2">
  <advance width="360"/>
  <unicode hex="057C"/>
  <note>
uni057C
</note>
  <outline>
    <contour>
      <point x="253" y="25" type="line"/>
      <point x="290" y="123"/>
      <point x="311" y="218"/>
      <point x="311" y="312" type="curve" smooth="yes"/>
      <point x="311" y="428"/>
      <point x="278" y="492"/>
      <point x="199" y="492" type="curve" smooth="yes"/>
      <point x="146" y="492"/>
      <point x="113" y="460"/>
      <point x="99" y="395" type="curve"/>
      <point x="95" y="395" type="line"/>
      <point x="92" y="482" type="line"/>
      <point x="71" y="482" type="line"/>
      <point x="71" y="0" type="line"/>
      <point x="97" y="0" type="line"/>
      <point x="97" y="256" type="line" smooth="yes"/>
      <point x="97" y="389"/>
      <point x="135" y="468"/>
      <point x="199" y="468" type="curve" smooth="yes"/>
      <point x="257" y="468"/>
      <point x="285" y="409"/>
      <point x="285" y="312" type="curve" smooth="yes"/>
      <point x="285" y="222"/>
      <point x="264" y="115"/>
      <point x="223" y="11" type="curve"/>
      <point x="223" y="0" type="line"/>
      <point x="339" y="0" type="line"/>
      <point x="339" y="25" type="line"/>
    </contour>
  </outline>
</glyph>
<glyph name="uni057D" format="2">
  <advance width="370"/>
  <unicode hex="057D"/>
  <note>
uni057D
</note>
  <outline>
    <contour>
      <point x="299" y="482" type="line"/>
      <point x="273" y="482" type="line"/>
      <point x="273" y="226" type="line" smooth="yes"/>
      <point x="273" y="93"/>
      <point x="237" y="14"/>
      <point x="173" y="14" type="curve" smooth="yes"/>
      <point x="121" y="14"/>
      <point x="95" y="46"/>
      <point x="95" y="155" type="curve" smooth="yes"/>
      <point x="95" y="482" type="line"/>
      <point x="69" y="482" type="line"/>
      <point x="69" y="156" type="line" smooth="yes"/>
      <point x="69" y="25"/>
      <point x="106" y="-10"/>
      <point x="169" y="-10" type="curve" smooth="yes"/>
      <point x="222" y="-10"/>
      <point x="257" y="22"/>
      <point x="271" y="87" type="curve"/>
      <point x="275" y="87" type="line"/>
      <point x="278" y="0" type="line"/>
      <point x="299" y="0" type="line"/>
    </contour>
  </outline>
</glyph>
<glyph name="uni057E" format="2">
  <advance width="370"/>
  <unicode hex="057E"/>
  <note>
uni057E
</note>
  <outline>
    <contour>
      <point x="299" y="-207" type="line"/>
      <point x="299" y="760" type="line"/>
      <point x="273" y="760" type="line"/>
      <point x="273" y="226" type="line" smooth="yes"/>
      <point x="273" y="93"/>
      <point x="237" y="14"/>
      <point x="173" y="14" type="curve" smooth="yes"/>
      <point x="121" y="14"/>
      <point x="95" y="46"/>
      <point x="95" y="155" type="curve" smooth="yes"/>
      <point x="95" y="482" type="line"/>
      <point x="69" y="482" type="line"/>
      <point x="69" y="156" type="line" smooth="yes"/>
      <point x="69" y="25"/>
      <point x="106" y="-10"/>
      <point x="169" y="-10" type="curve" smooth="yes"/>
      <point x="222" y="-10"/>
      <point x="257" y="22"/>
      <point x="271" y="87" type="curve"/>
      <point x="275" y="87" type="line"/>
      <point x="274" y="58"/>
      <point x="273" y="30"/>
      <point x="273" y="1" type="curve" smooth="yes"/>
      <point x="273" y="-232" type="line"/>
      <point x="370" y="-232" type="line"/>
      <point x="370" y="-207" type="line"/>
    </contour>
  </outline>
</glyph>
<glyph name="uni057F" format="2">
  <advance width="572"/>
  <unicode hex="057F"/>
  <note>
uni057F
</note>
  <outline>
    <contour>
      <point x="403" y="492" type="curve" smooth="yes"/>
      <point x="350" y="492"/>
      <point x="315" y="460"/>
      <point x="301" y="395" type="curve"/>
      <point x="297" y="395" type="line"/>
      <point x="294" y="482" type="line"/>
      <point x="273" y="482" type="line"/>
      <point x="273" y="226" type="line" smooth="yes"/>
      <point x="273" y="93"/>
      <point x="237" y="14"/>
      <point x="173" y="14" type="curve" smooth="yes"/>
      <point x="121" y="14"/>
      <point x="95" y="46"/>
      <point x="95" y="155" type="curve" smooth="yes"/>
      <point x="95" y="482" type="line"/>
      <point x="69" y="482" type="line"/>
      <point x="69" y="156" type="line" smooth="yes"/>
      <point x="69" y="25"/>
      <point x="106" y="-10"/>
      <point x="169" y="-10" type="curve" smooth="yes"/>
      <point x="222" y="-10"/>
      <point x="257" y="22"/>
      <point x="271" y="87" type="curve"/>
      <point x="275" y="87" type="line"/>
      <point x="278" y="0" type="line"/>
      <point x="299" y="0" type="line"/>
      <point x="299" y="256" type="line" smooth="yes"/>
      <point x="299" y="389"/>
      <point x="335" y="468"/>
      <point x="399" y="468" type="curve" smooth="yes"/>
      <point x="451" y="468"/>
      <point x="477" y="436"/>
      <point x="477" y="327" type="curve" smooth="yes"/>
      <point x="477" y="0" type="line"/>
      <point x="503" y="0" type="line"/>
      <point x="503" y="326" type="line" smooth="yes"/>
      <point x="503" y="457"/>
      <point x="466" y="492"/>
    </contour>
  </outline>
</glyph>
<glyph name="uni0580" format="2">
  <advance width="370"/>
  <unicode hex="0580"/>
  <note>
uni0580
</note>
  <outline>
    <contour>
      <point x="71" y="-232" type="line"/>
      <point x="97" y="-232" type="line"/>
      <point x="97" y="256" type="line" smooth="yes"/>
      <point x="97" y="389"/>
      <point x="133" y="468"/>
      <point x="197" y="468" type="curve" smooth="yes"/>
      <point x="249" y="468"/>
      <point x="275" y="436"/>
      <point x="275" y="327" type="curve" smooth="yes"/>
      <point x="275" y="0" type="line"/>
      <point x="301" y="0" type="line"/>
      <point x="301" y="326" type="line" smooth="yes"/>
      <point x="301" y="457"/>
      <point x="264" y="492"/>
      <point x="201" y="492" type="curve" smooth="yes"/>
      <point x="148" y="492"/>
      <point x="113" y="460"/>
      <point x="99" y="395" type="curve"/>
      <point x="95" y="395" type="line"/>
      <point x="92" y="482" type="line"/>
      <point x="71" y="482" type="line"/>
    </contour>
  </outline>
</glyph>
<glyph name="uni0581" format="2">
  <advance width="393"/>
  <unicode hex="0581"/>
  <note>
uni0581
</note>
  <outline>
    <contour>
      <point x="163" y="-242" type="curve" smooth="yes"/>
      <point x="273" y="-242"/>
      <point x="322" y="-173"/>
      <point x="322" y="-35" type="curve" smooth="yes"/>
      <point x="322" y="482" type="line"/>
      <point x="302" y="482" type="line"/>
      <point x="299" y="392" type="line"/>
      <point x="297" y="392" type="line"/>
      <point x="286" y="453"/>
      <point x="250" y="492"/>
      <point x="186" y="492" type="curve" smooth="yes"/>
      <point x="94" y="492"/>
      <point x="46" y="390"/>
      <point x="46" y="238" type="curve" smooth="yes"/>
      <point x="46" y="81"/>
      <point x="94" y="-10"/>
      <point x="182" y="-10" type="curve" smooth="yes"/>
      <point x="244" y="-10"/>
      <point x="279" y="30"/>
      <point x="296" y="100" type="curve"/>
      <point x="299" y="100" type="line"/>
      <point x="297" y="71"/>
      <point x="296" y="35"/>
      <point x="296" y="20" type="curve" smooth="yes"/>
      <point x="296" y="-35" type="line" smooth="yes"/>
      <point x="296" y="-163"/>
      <point x="253" y="-217"/>
      <point x="163" y="-217" type="curve" smooth="yes"/>
      <point x="123" y="-217"/>
      <point x="94" y="-205"/>
      <point x="62" y="-184" type="curve"/>
      <point x="62" y="-212" type="line"/>
      <point x="92" y="-232"/>
      <point x="125" y="-242"/>
    </contour>
    <contour>
      <point x="183" y="15" type="curve" smooth="yes"/>
      <point x="120" y="15"/>
      <point x="72" y="90"/>
      <point x="72" y="238" type="curve" smooth="yes"/>
      <point x="72" y="372"/>
      <point x="112" y="466"/>
      <point x="188" y="466" type="curve" smooth="yes"/>
      <point x="254" y="466"/>
      <point x="296" y="396"/>
      <point x="296" y="292" type="curve" smooth="yes"/>
      <point x="296" y="208" type="line" smooth="yes"/>
      <point x="296" y="94"/>
      <point x="250" y="15"/>
    </contour>
  </outline>
</glyph>
<glyph name="uni0582" format="2">
  <advance width="167"/>
  <unicode hex="0582"/>
  <note>
uni0582
</note>
  <outline>
    <contour>
      <point x="71" y="0" type="line"/>
      <point x="167" y="0" type="line"/>
      <point x="167" y="25" type="line"/>
      <point x="97" y="25" type="line"/>
      <point x="97" y="482" type="line"/>
      <point x="71" y="482" type="line"/>
    </contour>
  </outline>
</glyph>
<glyph name="uni0583" format="2">
  <advance width="572"/>
  <unicode hex="0583"/>
  <note>
uni0583
</note>
  <outline>
    <contour>
      <point x="403" y="492" type="curve" smooth="yes"/>
      <point x="350" y="492"/>
      <point x="315" y="460"/>
      <point x="301" y="395" type="curve"/>
      <point x="297" y="395" type="line"/>
      <point x="298" y="424"/>
      <point x="299" y="453"/>
      <point x="299" y="482" type="curve" smooth="yes"/>
      <point x="299" y="760" type="line"/>
      <point x="273" y="760" type="line"/>
      <point x="273" y="226" type="line" smooth="yes"/>
      <point x="273" y="93"/>
      <point x="237" y="14"/>
      <point x="173" y="14" type="curve" smooth="yes"/>
      <point x="121" y="14"/>
      <point x="95" y="46"/>
      <point x="95" y="155" type="curve" smooth="yes"/>
      <point x="95" y="482" type="line"/>
      <point x="69" y="482" type="line"/>
      <point x="69" y="156" type="line" smooth="yes"/>
      <point x="69" y="25"/>
      <point x="106" y="-10"/>
      <point x="169" y="-10" type="curve" smooth="yes"/>
      <point x="222" y="-10"/>
      <point x="257" y="22"/>
      <point x="271" y="87" type="curve"/>
      <point x="275" y="87" type="line"/>
      <point x="274" y="59"/>
      <point x="273" y="31"/>
      <point x="273" y="3" type="curve" smooth="yes"/>
      <point x="273" y="-232" type="line"/>
      <point x="299" y="-232" type="line"/>
      <point x="299" y="256" type="line" smooth="yes"/>
      <point x="299" y="389"/>
      <point x="335" y="468"/>
      <point x="399" y="468" type="curve" smooth="yes"/>
      <point x="451" y="468"/>
      <point x="477" y="436"/>
      <point x="477" y="327" type="curve" smooth="yes"/>
      <point x="477" y="0" type="line"/>
      <point x="503" y="0" type="line"/>
      <point x="503" y="326" type="line" smooth="yes"/>
      <point x="503" y="457"/>
      <point x="466" y="492"/>
    </contour>
  </outline>
</glyph>
<glyph name="uni0584" format="2">
  <advance width="398"/>
  <unicode hex="0584"/>
  <note>
uni0584
</note>
  <outline>
    <contour>
      <point x="76" y="-232" type="line"/>
      <point x="102" y="-232" type="line"/>
      <point x="102" y="-102" type="line"/>
      <point x="342" y="-102" type="line"/>
      <point x="342" y="-77" type="line"/>
      <point x="102" y="-77" type="line"/>
      <point x="102" y="20" type="line" smooth="yes"/>
      <point x="102" y="35"/>
      <point x="101" y="71"/>
      <point x="99" y="100" type="curve"/>
      <point x="102" y="100" type="line"/>
      <point x="119" y="30"/>
      <point x="154" y="-10"/>
      <point x="216" y="-10" type="curve" smooth="yes"/>
      <point x="304" y="-10"/>
      <point x="352" y="81"/>
      <point x="352" y="238" type="curve" smooth="yes"/>
      <point x="352" y="390"/>
      <point x="304" y="492"/>
      <point x="212" y="492" type="curve" smooth="yes"/>
      <point x="148" y="492"/>
      <point x="112" y="453"/>
      <point x="101" y="392" type="curve"/>
      <point x="99" y="392" type="line"/>
      <point x="96" y="482" type="line"/>
      <point x="76" y="482" type="line"/>
      <point x="76" y="-77" type="line"/>
      <point x="10" y="-77" type="line"/>
      <point x="10" y="-102" type="line"/>
      <point x="76" y="-102" type="line"/>
    </contour>
    <contour>
      <point x="215" y="15" type="curve" smooth="yes"/>
      <point x="148" y="15"/>
      <point x="102" y="94"/>
      <point x="102" y="208" type="curve" smooth="yes"/>
      <point x="102" y="292" type="line" smooth="yes"/>
      <point x="102" y="396"/>
      <point x="144" y="466"/>
      <point x="210" y="466" type="curve" smooth="yes"/>
      <point x="286" y="466"/>
      <point x="326" y="372"/>
      <point x="326" y="238" type="curve" smooth="yes"/>
      <point x="326" y="90"/>
      <point x="278" y="15"/>
    </contour>
  </outline>
</glyph>
<glyph name="uni0585" format="2">
  <advance width="333"/>
  <unicode hex="0585"/>
  <note>
uni0585
</note>
  <anchor x="166" y="492" name="top"/>
  <outline>
    <contour>
      <point x="166" y="-13" type="curve" smooth="yes"/>
      <point x="253" y="-13"/>
      <point x="297" y="98"/>
      <point x="297" y="240" type="curve" smooth="yes"/>
      <point x="297" y="379"/>
      <point x="256" y="492"/>
      <point x="169" y="492" type="curve" smooth="yes"/>
      <point x="88" y="492"/>
      <point x="36" y="396"/>
      <point x="36" y="240" type="curve" smooth="yes"/>
      <point x="36" y="96"/>
      <point x="82" y="-13"/>
    </contour>
    <contour>
      <point x="166" y="13" type="curve" smooth="yes"/>
      <point x="99" y="13"/>
      <point x="62" y="96"/>
      <point x="62" y="240" type="curve" smooth="yes"/>
      <point x="62" y="385"/>
      <point x="100" y="466"/>
      <point x="169" y="466" type="curve" smooth="yes"/>
      <point x="243" y="466"/>
      <point x="271" y="364"/>
      <point x="271" y="240" type="curve" smooth="yes"/>
      <point x="271" y="94"/>
      <point x="234" y="13"/>
    </contour>
  </outline>
</glyph>
<glyph name="uni0586" format="2">
  <advance width="350"/>
  <unicode hex="0586"/>
  <note>
uni0586
</note>
  <outline>
    <contour>
      <point x="171" y="393" type="curve"/>
      <point x="171" y="717" type="line"/>
      <point x="150" y="717" type="line" smooth="yes"/>
      <point x="66" y="717"/>
      <point x="26" y="644"/>
      <point x="26" y="570" type="curve" smooth="yes"/>
      <point x="26" y="498"/>
      <point x="65" y="433"/>
      <point x="146" y="377" type="curve"/>
      <point x="146" y="15" type="line"/>
      <point x="97" y="17"/>
      <point x="52" y="30"/>
      <point x="19" y="51" type="curve"/>
      <point x="19" y="21" type="line"/>
      <point x="50" y="5"/>
      <point x="96" y="-8"/>
      <point x="146" y="-10" type="curve"/>
      <point x="146" y="-232" type="line"/>
      <point x="171" y="-232" type="line"/>
      <point x="171" y="-10" type="line"/>
      <point x="263" y="-5"/>
      <point x="314" y="58"/>
      <point x="314" y="153" type="curve" smooth="yes"/>
      <point x="314" y="267"/>
      <point x="257" y="331"/>
    </contour>
    <contour>
      <point x="52" y="569" type="curve" smooth="yes"/>
      <point x="52" y="636"/>
      <point x="84" y="692"/>
      <point x="146" y="692" type="curve"/>
      <point x="146" y="407" type="line"/>
      <point x="84" y="454"/>
      <point x="52" y="503"/>
    </contour>
    <contour>
      <point x="171" y="15" type="curve"/>
      <point x="171" y="363" type="line"/>
      <point x="242" y="308"/>
      <point x="287" y="253"/>
      <point x="287" y="153" type="curve" smooth="yes"/>
      <point x="287" y="78"/>
      <point x="249" y="20"/>
    </contour>
  </outline>
</glyph>
<glyph name="uni0588" format="2">
  <advance width="178"/>
  <unicode hex="0588"/>
  <note>
uni0575
</note>
  <outline>
    <contour>
      <point x="76" y="99" type="line"/>
      <point x="102" y="99" type="line"/>
      <point x="102" y="482" type="line"/>
      <point x="76" y="482" type="line"/>
    </contour>
    <contour>
      <point x="76" y="99" type="line"/>
      <point x="76" y="44"/>
      <point x="81" y="17"/>
      <point x="88" y="-20" type="curve" smooth="yes"/>
      <point x="94" y="-54"/>
      <point x="99" y="-98"/>
      <point x="99" y="-131" type="curve" smooth="yes"/>
      <point x="99" y="-182"/>
      <point x="83" y="-207"/>
      <point x="54" y="-207" type="curve" smooth="yes"/>
      <point x="51" y="-207" type="line"/>
      <point x="51" y="-232" type="line"/>
      <point x="57" y="-232" type="line" smooth="yes"/>
      <point x="98" y="-232"/>
      <point x="126" y="-192"/>
      <point x="126" y="-131" type="curve" smooth="yes"/>
      <point x="126" y="-91"/>
      <point x="119" y="-43"/>
      <point x="113" y="-14" type="curve" smooth="yes"/>
      <point x="105" y="24"/>
      <point x="102" y="52"/>
      <point x="102" y="99" type="curve"/>
    </contour>
    <contour>
      <point x="6" y="112" type="line"/>
      <point x="6" y="87" type="line"/>
      <point x="172" y="87" type="line"/>
      <point x="172" y="112" type="line"/>
    </contour>
  </outline>
</glyph>
<glyph name="uni0589" format="2">
  <advance width="181"/>
  <unicode hex="0589"/>
  <note>
uni0589
</note>
  <outline>
    <contour>
      <point x="65" y="31" type="curve" smooth="yes"/>
      <point x="65" y="12"/>
      <point x="67" y="-5"/>
      <point x="90" y="-5" type="curve" smooth="yes"/>
      <point x="112" y="-5"/>
      <point x="116" y="11"/>
      <point x="116" y="31" type="curve" smooth="yes"/>
      <point x="116" y="50"/>
      <point x="112" y="66"/>
      <point x="90" y="66" type="curve" smooth="yes"/>
      <point x="69" y="66"/>
      <point x="65" y="50"/>
    </contour>
    <contour>
      <point x="65" y="472" type="curve" smooth="yes"/>
      <point x="65" y="452"/>
      <point x="70" y="437"/>
      <point x="90" y="437" type="curve" smooth="yes"/>
      <point x="108" y="437"/>
      <point x="116" y="450"/>
      <point x="116" y="473" type="curve" smooth="yes"/>
      <point x="116" y="497"/>
      <point x="109" y="508"/>
      <point x="91" y="508" type="curve" smooth="yes"/>
      <point x="70" y="508"/>
      <point x="65" y="492"/>
    </contour>
  </outline>
</glyph>
<glyph name="uni058A" format="2">
  <advance width="255"/>
  <unicode hex="058A"/>
  <note>
uni058A
</note>
  <outline>
    <contour>
      <point x="121" y="217" type="curve" smooth="yes"/>
      <point x="160" y="217"/>
      <point x="190" y="223"/>
      <point x="220" y="235" type="curve"/>
      <point x="220" y="262" type="line"/>
      <point x="189" y="249"/>
      <point x="159" y="242"/>
      <point x="121" y="242" type="curve" smooth="yes"/>
      <point x="83" y="242"/>
      <point x="61" y="255"/>
      <point x="61" y="306" type="curve"/>
      <point x="35" y="306" type="line"/>
      <point x="35" y="242"/>
      <point x="63" y="217"/>
    </contour>
  </outline>
</glyph>
<glyph name="uni058D" format="2">
  <advance width="810"/>
  <unicode hex="058D"/>
  <outline>
    <contour>
      <point x="405" y="-9" type="curve" smooth="yes"/>
      <point x="455" y="-9"/>
      <point x="501" y="11"/>
      <point x="535" y="43" type="curve"/>
      <point x="635" y="47"/>
      <point x="716" y="127"/>
      <point x="718" y="227" type="curve"/>
      <point x="751" y="261"/>
      <point x="771" y="306"/>
      <point x="771" y="357" type="curve" smooth="yes"/>
      <point x="771" y="408"/>
      <point x="751" y="454"/>
      <point x="718" y="488" type="curve"/>
      <point x="714" y="591"/>
      <point x="632" y="668"/>
      <point x="535" y="670" type="curve"/>
      <point x="501" y="703"/>
      <point x="456" y="723"/>
      <point x="405" y="723" type="curve" smooth="yes"/>
      <point x="355" y="723"/>
      <point x="308" y="703"/>
      <point x="274" y="670" type="curve"/>
      <point x="171" y="666"/>
      <point x="94" y="583"/>
      <point x="92" y="487" type="curve"/>
      <point x="59" y="453"/>
      <point x="39" y="406"/>
      <point x="39" y="357" type="curve" smooth="yes"/>
      <point x="39" y="306"/>
      <point x="59" y="260"/>
      <point x="92" y="226" type="curve"/>
      <point x="94" y="124"/>
      <point x="179" y="46"/>
      <point x="275" y="44" type="curve"/>
      <point x="309" y="12"/>
      <point x="355" y="-9"/>
    </contour>
    <contour>
      <point x="561" y="74" type="curve"/>
      <point x="583" y="105"/>
      <point x="595" y="142"/>
      <point x="595" y="182" type="curve" smooth="yes"/>
      <point x="595" y="275"/>
      <point x="528" y="352"/>
      <point x="439" y="368" type="curve"/>
      <point x="465" y="386"/>
      <point x="496" y="394"/>
      <point x="527" y="394" type="curve" smooth="yes"/>
      <point x="622" y="394"/>
      <point x="691" y="319"/>
      <point x="691" y="231" type="curve" smooth="yes"/>
      <point x="691" y="154"/>
      <point x="636" y="89"/>
    </contour>
    <contour>
      <point x="405" y="19" type="curve" smooth="yes"/>
      <point x="372" y="19"/>
      <point x="341" y="30"/>
      <point x="316" y="47" type="curve"/>
      <point x="404" y="62"/>
      <point x="470" y="141"/>
      <point x="470" y="232" type="curve" smooth="yes"/>
      <point x="470" y="270"/>
      <point x="459" y="307"/>
      <point x="436" y="340" type="curve"/>
      <point x="510" y="325"/>
      <point x="566" y="260"/>
      <point x="566" y="182" type="curve" smooth="yes"/>
      <point x="566" y="92"/>
      <point x="493" y="19"/>
    </contour>
    <contour>
      <point x="716" y="267" type="curve"/>
      <point x="699" y="356"/>
      <point x="621" y="422"/>
      <point x="530" y="422" type="curve" smooth="yes"/>
      <point x="492" y="422"/>
      <point x="455" y="411"/>
      <point x="422" y="388" type="curve"/>
      <point x="437" y="462"/>
      <point x="502" y="518"/>
      <point x="580" y="518" type="curve" smooth="yes"/>
      <point x="670" y="518"/>
      <point x="743" y="445"/>
      <point x="743" y="357" type="curve" smooth="yes"/>
      <point x="743" y="324"/>
      <point x="734" y="293"/>
    </contour>
    <contour>
      <point x="279" y="72" type="curve" smooth="yes"/>
      <point x="198" y="72"/>
      <point x="138" y="127"/>
      <point x="123" y="200" type="curve"/>
      <point x="153" y="179"/>
      <point x="190" y="167"/>
      <point x="230" y="167" type="curve" smooth="yes"/>
      <point x="323" y="167"/>
      <point x="400" y="234"/>
      <point x="416" y="323" type="curve"/>
      <point x="434" y="297"/>
      <point x="442" y="266"/>
      <point x="442" y="235" type="curve" smooth="yes"/>
      <point x="442" y="143"/>
      <point x="371" y="72"/>
    </contour>
    <contour>
      <point x="394" y="391" type="curve"/>
      <point x="376" y="417"/>
      <point x="368" y="448"/>
      <point x="368" y="479" type="curve" smooth="yes"/>
      <point x="368" y="571"/>
      <point x="439" y="642"/>
      <point x="531" y="642" type="curve" smooth="yes"/>
      <point x="609" y="642"/>
      <point x="672" y="591"/>
      <point x="687" y="514" type="curve"/>
      <point x="657" y="535"/>
      <point x="620" y="547"/>
      <point x="580" y="547" type="curve" smooth="yes"/>
      <point x="487" y="547"/>
      <point x="410" y="480"/>
    </contour>
    <contour>
      <point x="230" y="196" type="curve" smooth="yes"/>
      <point x="140" y="196"/>
      <point x="67" y="269"/>
      <point x="67" y="357" type="curve" smooth="yes"/>
      <point x="67" y="390"/>
      <point x="77" y="421"/>
      <point x="95" y="446" type="curve"/>
      <point x="110" y="358"/>
      <point x="189" y="292"/>
      <point x="280" y="292" type="curve" smooth="yes"/>
      <point x="318" y="292"/>
      <point x="355" y="303"/>
      <point x="388" y="326" type="curve"/>
      <point x="373" y="252"/>
      <point x="308" y="196"/>
    </contour>
    <contour>
      <point x="374" y="374" type="curve"/>
      <point x="300" y="389"/>
      <point x="244" y="454"/>
      <point x="244" y="532" type="curve" smooth="yes"/>
      <point x="244" y="622"/>
      <point x="317" y="695"/>
      <point x="405" y="695" type="curve" smooth="yes"/>
      <point x="437" y="695"/>
      <point x="469" y="685"/>
      <point x="494" y="667" type="curve"/>
      <point x="406" y="652"/>
      <point x="340" y="573"/>
      <point x="340" y="482" type="curve" smooth="yes"/>
      <point x="340" y="444"/>
      <point x="351" y="407"/>
    </contour>
    <contour>
      <point x="283" y="320" type="curve" smooth="yes"/>
      <point x="188" y="320"/>
      <point x="119" y="395"/>
      <point x="119" y="483" type="curve" smooth="yes"/>
      <point x="119" y="562"/>
      <point x="176" y="625"/>
      <point x="248" y="640" type="curve"/>
      <point x="227" y="609"/>
      <point x="215" y="572"/>
      <point x="215" y="532" type="curve" smooth="yes"/>
      <point x="215" y="439"/>
      <point x="282" y="362"/>
      <point x="371" y="346" type="curve"/>
      <point x="345" y="328"/>
      <point x="314" y="320"/>
    </contour>
  </outline>
</glyph>
<glyph name="uni058F" format="2">
  <advance width="452"/>
  <unicode hex="058F"/>
  <note>
uni058F
</note>
  <outline>
    <contour>
      <point x="368" y="0" type="line"/>
      <point x="368" y="497" type="line" smooth="yes"/>
      <point x="368" y="655"/>
      <point x="311" y="724"/>
      <point x="208" y="724" type="curve" smooth="yes"/>
      <point x="119" y="724"/>
      <point x="48" y="668"/>
      <point x="48" y="493" type="curve"/>
      <point x="73" y="493" type="line"/>
      <point x="73" y="651"/>
      <point x="128" y="699"/>
      <point x="207" y="699" type="curve" smooth="yes"/>
      <point x="292" y="699"/>
      <point x="342" y="643"/>
      <point x="342" y="493" type="curve" smooth="yes"/>
      <point x="342" y="0" type="line"/>
    </contour>
    <contour>
      <point x="268" y="365" type="line"/>
      <point x="268" y="338" type="line"/>
      <point x="440" y="338" type="line"/>
      <point x="440" y="365" type="line"/>
    </contour>
    <contour>
      <point x="268" y="247" type="line"/>
      <point x="268" y="220" type="line"/>
      <point x="440" y="220" type="line"/>
      <point x="440" y="247" type="line"/>
    </contour>
  </outline>
</glyph>
<glyph name="uniFB13" format="2">
  <advance width="712"/>
  <unicode hex="FB13"/>
  <note>
uniFB13
</note>
  <outline>
    <contour>
      <point x="299" y="495" type="line" smooth="yes"/>
      <point x="299" y="532"/>
      <point x="290" y="553"/>
      <point x="268" y="594" type="curve" smooth="yes"/>
      <point x="252" y="624"/>
      <point x="243" y="647"/>
      <point x="243" y="673" type="curve" smooth="yes"/>
      <point x="243" y="716"/>
      <point x="254" y="735"/>
      <point x="284" y="735" type="curve" smooth="yes"/>
      <point x="449" y="735" type="line"/>
      <point x="449" y="760" type="line"/>
      <point x="284" y="760" type="line" smooth="yes"/>
      <point x="248" y="760"/>
      <point x="217" y="737"/>
      <point x="217" y="672" type="curve" smooth="yes"/>
      <point x="217" y="640"/>
      <point x="228" y="615"/>
      <point x="246" y="583" type="curve" smooth="yes"/>
      <point x="264" y="550"/>
      <point x="273" y="527"/>
      <point x="273" y="496" type="curve" smooth="yes"/>
      <point x="273" y="226" type="line" smooth="yes"/>
      <point x="273" y="93"/>
      <point x="237" y="14"/>
      <point x="173" y="14" type="curve" smooth="yes"/>
      <point x="121" y="14"/>
      <point x="95" y="46"/>
      <point x="95" y="155" type="curve" smooth="yes"/>
      <point x="95" y="482" type="line"/>
      <point x="69" y="482" type="line"/>
      <point x="69" y="156" type="line" smooth="yes"/>
      <point x="69" y="25"/>
      <point x="106" y="-10"/>
      <point x="169" y="-10" type="curve" smooth="yes"/>
      <point x="222" y="-10"/>
      <point x="257" y="22"/>
      <point x="271" y="87" type="curve"/>
      <point x="275" y="87" type="line"/>
      <point x="278" y="0" type="line"/>
      <point x="299" y="0" type="line"/>
    </contour>
    <contour>
      <point x="465" y="517" type="line"/>
      <point x="409" y="385"/>
      <point x="390" y="309"/>
      <point x="390" y="190" type="curve" smooth="yes"/>
      <point x="390" y="74"/>
      <point x="423" y="-10"/>
      <point x="502" y="-10" type="curve" smooth="yes"/>
      <point x="564" y="-10"/>
      <point x="599" y="22"/>
      <point x="613" y="87" type="curve"/>
      <point x="617" y="87" type="line"/>
      <point x="620" y="0" type="line"/>
      <point x="641" y="0" type="line"/>
      <point x="641" y="482" type="line"/>
      <point x="615" y="482" type="line"/>
      <point x="615" y="226" type="line" smooth="yes"/>
      <point x="615" y="93"/>
      <point x="579" y="14"/>
      <point x="502" y="14" type="curve" smooth="yes"/>
      <point x="444" y="14"/>
      <point x="416" y="98"/>
      <point x="416" y="190" type="curve" smooth="yes"/>
      <point x="416" y="308"/>
      <point x="441" y="405"/>
      <point x="489" y="517" type="curve"/>
      <point x="489" y="527" type="line"/>
      <point x="469" y="527" type="line"/>
    </contour>
    <contour>
      <point x="489" y="527" type="line"/>
      <point x="439" y="589" type="line" smooth="yes"/>
      <point x="422" y="610"/>
      <point x="416" y="626"/>
      <point x="416" y="640" type="curve" smooth="yes"/>
      <point x="416" y="653"/>
      <point x="422" y="671"/>
      <point x="433" y="688" type="curve" smooth="yes"/>
      <point x="472" y="748" type="line"/>
      <point x="449" y="760" type="line"/>
      <point x="410" y="700" type="line" smooth="yes"/>
      <point x="394" y="676"/>
      <point x="390" y="658"/>
      <point x="390" y="640" type="curve" smooth="yes"/>
      <point x="390" y="619"/>
      <point x="397" y="601"/>
      <point x="417" y="576" type="curve" smooth="yes"/>
      <point x="465" y="517" type="line"/>
    </contour>
  </outline>
</glyph>
<glyph name="uniFB14" format="2">
  <advance width="714"/>
  <unicode hex="FB14"/>
  <note>
uniFB14
</note>
  <outline>
    <contour>
      <point x="299" y="495" type="line" smooth="yes"/>
      <point x="299" y="532"/>
      <point x="290" y="554"/>
      <point x="268" y="594" type="curve" smooth="yes"/>
      <point x="251" y="625"/>
      <point x="243" y="647"/>
      <point x="243" y="673" type="curve" smooth="yes"/>
      <point x="243" y="716"/>
      <point x="254" y="735"/>
      <point x="284" y="735" type="curve" smooth="yes"/>
      <point x="429" y="735" type="line"/>
      <point x="429" y="760" type="line"/>
      <point x="284" y="760" type="line" smooth="yes"/>
      <point x="248" y="760"/>
      <point x="217" y="737"/>
      <point x="217" y="672" type="curve" smooth="yes"/>
      <point x="217" y="640"/>
      <point x="228" y="615"/>
      <point x="246" y="583" type="curve" smooth="yes"/>
      <point x="264" y="550"/>
      <point x="273" y="527"/>
      <point x="273" y="496" type="curve" smooth="yes"/>
      <point x="273" y="226" type="line" smooth="yes"/>
      <point x="273" y="93"/>
      <point x="237" y="14"/>
      <point x="173" y="14" type="curve" smooth="yes"/>
      <point x="121" y="14"/>
      <point x="95" y="46"/>
      <point x="95" y="155" type="curve" smooth="yes"/>
      <point x="95" y="482" type="line"/>
      <point x="69" y="482" type="line"/>
      <point x="69" y="156" type="line" smooth="yes"/>
      <point x="69" y="25"/>
      <point x="106" y="-10"/>
      <point x="169" y="-10" type="curve" smooth="yes"/>
      <point x="222" y="-10"/>
      <point x="257" y="22"/>
      <point x="271" y="87" type="curve"/>
      <point x="275" y="87" type="line"/>
      <point x="278" y="0" type="line"/>
      <point x="299" y="0" type="line"/>
    </contour>
    <contour>
      <point x="639" y="332" type="line"/>
      <point x="613" y="332" type="line"/>
      <point x="613" y="226" type="line" smooth="yes"/>
      <point x="613" y="93"/>
      <point x="577" y="14"/>
      <point x="513" y="14" type="curve" smooth="yes"/>
      <point x="461" y="14"/>
      <point x="435" y="46"/>
      <point x="435" y="155" type="curve" smooth="yes"/>
      <point x="435" y="760" type="line"/>
      <point x="409" y="760" type="line"/>
      <point x="409" y="156" type="line" smooth="yes"/>
      <point x="409" y="25"/>
      <point x="446" y="-10"/>
      <point x="509" y="-10" type="curve" smooth="yes"/>
      <point x="562" y="-10"/>
      <point x="597" y="22"/>
      <point x="611" y="87" type="curve"/>
      <point x="615" y="87" type="line"/>
      <point x="618" y="0" type="line"/>
      <point x="639" y="0" type="line"/>
    </contour>
    <contour>
      <point x="424" y="482" type="line"/>
      <point x="424" y="457" type="line"/>
      <point x="643" y="457" type="line"/>
      <point x="643" y="482" type="line"/>
    </contour>
  </outline>
</glyph>
<glyph name="uniFB16" format="2">
  <advance width="712"/>
  <unicode hex="FB16"/>
  <note>
uniFB16
</note>
  <outline>
    <contour>
      <point x="299" y="-207" type="line"/>
      <point x="299" y="760" type="line"/>
      <point x="273" y="760" type="line"/>
      <point x="273" y="226" type="line" smooth="yes"/>
      <point x="273" y="93"/>
      <point x="237" y="14"/>
      <point x="173" y="14" type="curve" smooth="yes"/>
      <point x="121" y="14"/>
      <point x="95" y="46"/>
      <point x="95" y="155" type="curve" smooth="yes"/>
      <point x="95" y="482" type="line"/>
      <point x="69" y="482" type="line"/>
      <point x="69" y="156" type="line" smooth="yes"/>
      <point x="69" y="25"/>
      <point x="106" y="-10"/>
      <point x="169" y="-10" type="curve" smooth="yes"/>
      <point x="222" y="-10"/>
      <point x="257" y="22"/>
      <point x="271" y="87" type="curve"/>
      <point x="275" y="87" type="line"/>
      <point x="274" y="58"/>
      <point x="273" y="30"/>
      <point x="273" y="1" type="curve" smooth="yes"/>
      <point x="273" y="-232" type="line"/>
      <point x="370" y="-232" type="line"/>
      <point x="370" y="-207" type="line"/>
    </contour>
    <contour>
      <point x="284" y="760" type="line"/>
      <point x="284" y="735" type="line"/>
      <point x="449" y="735" type="line"/>
      <point x="449" y="760" type="line"/>
    </contour>
    <contour>
      <point x="465" y="517" type="line"/>
      <point x="414" y="405"/>
      <point x="390" y="317"/>
      <point x="390" y="190" type="curve" smooth="yes"/>
      <point x="390" y="74"/>
      <point x="423" y="-10"/>
      <point x="502" y="-10" type="curve" smooth="yes"/>
      <point x="564" y="-10"/>
      <point x="599" y="22"/>
      <point x="613" y="87" type="curve"/>
      <point x="617" y="87" type="line"/>
      <point x="620" y="0" type="line"/>
      <point x="641" y="0" type="line"/>
      <point x="641" y="482" type="line"/>
      <point x="615" y="482" type="line"/>
      <point x="615" y="226" type="line" smooth="yes"/>
      <point x="615" y="93"/>
      <point x="579" y="14"/>
      <point x="502" y="14" type="curve" smooth="yes"/>
      <point x="444" y="14"/>
      <point x="416" y="98"/>
      <point x="416" y="190" type="curve" smooth="yes"/>
      <point x="416" y="308"/>
      <point x="441" y="405"/>
      <point x="489" y="517" type="curve"/>
      <point x="489" y="527" type="line"/>
      <point x="470" y="527" type="line"/>
    </contour>
    <contour>
      <point x="489" y="527" type="line"/>
      <point x="439" y="589" type="line" smooth="yes"/>
      <point x="422" y="610"/>
      <point x="416" y="626"/>
      <point x="416" y="640" type="curve" smooth="yes"/>
      <point x="416" y="653"/>
      <point x="422" y="671"/>
      <point x="433" y="688" type="curve" smooth="yes"/>
      <point x="472" y="748" type="line"/>
      <point x="449" y="760" type="line"/>
      <point x="411" y="701" type="line" smooth="yes"/>
      <point x="396" y="677"/>
      <point x="390" y="658"/>
      <point x="390" y="640" type="curve" smooth="yes"/>
      <point x="390" y="619"/>
      <point x="397" y="601"/>
      <point x="417" y="576" type="curve" smooth="yes"/>
      <point x="465" y="517" type="line"/>
    </contour>
  </outline>
</glyph>
